<svg width="638" height="813" viewBox="0 0 638 813" fill="none" xmlns="http://www.w3.org/2000/svg">
<g filter="url(#filter0_d_794_8584)">
<path d="M260.2 243.641C263.42 242.551 266.25 241.281 269.22 240.671C272.13 240.071 275.17 239.951 278.15 239.941C302.05 239.891 325.95 239.881 349.86 239.931C357.35 239.941 364.9 239.621 372.32 240.421C383.23 241.591 391.26 247.401 395.77 257.641C396.99 260.411 397.33 263.391 397.75 266.351C399 275.241 400.3 284.131 401.56 293.021C402.35 298.621 403.08 304.221 403.89 309.821C404.53 314.171 405.27 318.511 405.95 322.861C406.23 324.671 406.44 326.481 406.7 328.301C407.75 335.791 408.78 343.281 409.88 350.761C410.7 356.351 411.67 361.931 412.5 367.521C413.15 371.881 413.79 376.241 414.27 380.621C415.03 387.541 412.99 393.791 409.09 399.421C404.72 405.731 398.73 409.871 391.23 411.641C389.31 412.091 387.28 412.151 385.3 412.231C383.06 412.331 380.8 412.251 378.56 412.261C375.87 412.271 375.69 412.391 375.44 414.941C375.14 418.001 374.94 421.081 374.62 424.141C373.96 430.601 373.26 437.051 372.58 443.501C372.32 445.981 372.09 448.471 371.86 450.951C371.29 457.081 370.76 463.211 370.14 469.341C369.52 475.461 368.8 481.581 368.17 487.701C367.59 493.331 367.08 498.961 366.51 504.591C365.86 511.051 365.15 517.501 364.51 523.961C363.91 530.001 363.38 536.051 362.79 542.101C362.23 547.811 361.63 553.521 361.07 559.241C360.44 565.611 359.83 571.991 359.19 578.361C358.87 581.591 358.49 584.811 358.17 588.041C357.5 594.741 356.89 601.451 356.2 608.161C355.34 616.521 354.42 624.871 353.54 633.231C353.24 636.131 353.16 639.051 352.7 641.921C351.67 648.431 346.47 653.611 339.93 654.981C337.59 655.471 335.16 655.661 332.77 655.691C324.69 655.771 316.61 655.851 308.54 655.681C302.01 655.541 296.61 652.971 293.12 647.201C291.73 644.901 291.01 642.371 290.83 639.641C290.59 635.821 290.1 632.021 289.74 628.211C289.51 625.811 289.31 623.401 289.08 621.001C288.48 614.791 287.88 608.581 287.24 602.381C286.59 596.091 285.89 589.811 285.23 583.531C284.99 581.301 284.82 579.061 284.6 576.821C284 570.531 283.41 564.231 282.79 557.941C282.51 555.121 282.18 552.321 281.89 549.501C280.77 538.741 279.61 527.991 278.54 517.221C277.7 508.781 277 500.321 276.17 491.871C275.56 485.751 274.83 479.631 274.17 473.521C273.9 471.041 273.69 468.551 273.45 466.071C272.61 457.461 271.8 448.841 270.93 440.231C270.34 434.351 269.67 428.481 269.06 422.611C268.78 419.881 268.64 417.131 268.27 414.411C267.62 409.551 266.83 404.711 266.11 399.861C265.32 394.521 264.58 389.171 263.77 383.831C263.12 379.561 262.37 375.311 261.71 371.041C261.11 367.181 260.57 363.311 259.96 359.451C259.83 358.641 259.68 357.791 259.31 357.081C255.82 350.401 252.21 343.781 248.78 337.071C243.19 326.141 237.72 315.151 232.18 304.201C226.73 293.401 221.26 282.611 215.8 271.811C209.62 259.611 203.43 247.411 197.25 235.201C191.03 222.911 184.79 210.641 178.64 198.331C173.14 187.331 176.17 174.391 185.56 167.111C192.82 161.481 201.06 159.451 209.97 162.001C216.51 163.871 221.66 167.961 224.83 174.091C230.09 184.251 235.2 194.491 240.36 204.711C244.81 213.521 249.26 222.341 253.71 231.151C255.58 234.861 257.45 238.561 259.34 242.261C259.59 242.761 259.93 243.221 260.2 243.641Z" fill="#FFD400"/>
<path d="M318.48 802.651C287.01 802.651 255.53 802.651 224.06 802.651C220.63 802.651 217.3 802.351 214.08 800.941C207.01 797.841 201 790.051 201.22 781.501C201.25 780.521 201.46 779.521 201.72 778.571C204.11 769.941 206.53 761.321 208.93 752.701C211.31 744.151 213.67 735.581 216.06 727.031C218.09 719.761 220.19 712.511 222.16 705.221C222.7 703.221 222.9 701.141 223.29 699.101C224.69 691.711 228.93 686.571 235.65 683.331C238.97 681.731 242.47 681.381 246.08 681.381C266.06 681.401 286.05 681.391 306.03 681.391C334.42 681.391 362.82 681.401 391.21 681.381C394.91 681.381 398.5 681.701 401.88 683.391C409.01 686.941 413.2 692.541 414.36 700.491C414.86 703.921 415.77 707.311 416.68 710.671C418.45 717.241 420.36 723.771 422.2 730.321C423.52 735.031 424.79 739.761 426.12 744.481C427.98 751.111 429.87 757.731 431.73 764.361C433.07 769.161 434.3 773.991 435.76 778.751C436.35 780.671 436.44 782.561 436.09 784.411C434.32 793.721 428.08 800.011 419.62 802.161C417.48 802.701 415.16 802.631 412.92 802.631C381.43 802.651 349.96 802.651 318.48 802.651Z" fill="#FFD400"/>
<path d="M183.91 418.74C183.63 420.05 183.3 421.17 183.16 422.31C182.12 431.15 181.12 439.99 180.1 448.83C179.12 457.26 178.14 465.68 177.15 474.1C176.18 482.35 175.22 490.61 174.21 498.86C173.35 505.87 172.44 512.88 171.52 519.88C171.27 521.76 171.17 523.73 170.48 525.45C169.12 528.9 166.38 530.91 162.64 531.03C157.4 531.2 152.15 531.07 146.91 531.12C142.39 531.16 138.24 527.8 137.6 522.43C136.76 515.33 136.1 508.21 135.27 501.11C134.45 494.09 133.49 487.09 132.64 480.08C132 474.8 131.5 469.5 130.86 464.21C130.03 457.27 129.1 450.35 128.26 443.41C127.62 438.13 127.05 432.84 126.45 427.55C126.19 425.24 125.95 422.92 125.69 420.61C125.55 419.37 125.04 418.61 123.61 418.71C122.37 418.8 121.11 418.68 119.86 418.73C112.03 419.05 104.25 411.47 104.48 402.99C104.53 401.33 104.82 399.68 105 398.03C105.54 393.07 106.06 388.1 106.63 383.15C107.29 377.37 108.01 371.59 108.69 365.81C108.95 363.58 109.16 361.34 109.39 359.11C109.95 353.73 110.47 348.35 111.09 342.99C111.72 337.46 112.47 331.94 113.13 326.41C113.39 324.26 113.47 322.09 113.79 319.96C114.63 314.36 117.79 310.34 122.76 307.9C124.71 306.94 127.05 306.38 129.22 306.36C146.04 306.24 162.86 306.21 179.68 306.33C188.29 306.39 194.73 313.29 195.47 321.33C196.05 327.62 196.9 333.88 197.61 340.15C197.84 342.22 198.01 344.29 198.23 346.36C198.8 351.82 199.35 357.28 199.96 362.73C200.79 370.08 201.71 377.43 202.53 384.78C203.2 390.73 203.89 396.68 204.38 402.64C204.97 409.75 199.52 416.61 192.66 418.3C190.68 418.79 188.54 418.62 186.46 418.72C185.67 418.77 184.85 418.74 183.91 418.74Z" fill="#FFD400"/>
<path d="M455.14 418.742C453.06 418.742 451.23 418.692 449.42 418.752C442.49 418.982 435.31 412.392 434.67 405.692C434.49 403.812 434.53 401.882 434.71 400.002C435.27 394.212 435.96 388.432 436.58 382.642C437.18 377.022 437.74 371.392 438.37 365.772C438.99 360.322 439.68 354.882 440.33 349.432C440.62 347.032 440.92 344.642 441.18 342.242C441.95 334.962 442.64 327.672 443.49 320.402C444.15 314.752 448.45 308.882 454.72 307.072C456.69 306.502 458.61 306.292 460.6 306.292C476.59 306.292 492.58 306.342 508.57 306.272C516.74 306.232 522.8 311.372 524.89 318.682C525.25 319.942 525.24 321.322 525.38 322.642C526.02 328.602 526.6 334.562 527.29 340.512C528.13 347.872 529.09 355.212 529.93 362.572C530.57 368.192 531.09 373.822 531.7 379.442C532.26 384.562 532.87 389.682 533.47 394.802C533.78 397.442 534.39 400.082 534.39 402.722C534.4 407.112 532.84 411.032 529.66 414.162C526.58 417.202 522.92 418.952 518.47 418.762C516.9 418.692 515.33 418.752 513.54 418.752C513.22 421.192 512.91 423.472 512.63 425.752C511.92 431.442 511.23 437.142 510.53 442.832C510.26 445.062 510.01 447.292 509.74 449.522C508.77 457.612 507.77 465.702 506.83 473.792C506.02 480.732 505.3 487.682 504.47 494.622C503.83 499.992 503.09 505.342 502.42 510.712C501.88 515.002 501.48 519.312 500.84 523.592C500.21 527.832 496.73 530.942 492.44 531.042C487.03 531.162 481.61 531.172 476.2 531.042C471.67 530.932 468.18 527.412 467.64 522.872C466.79 515.772 465.82 508.682 464.97 501.572C464.34 496.372 463.83 491.152 463.24 485.952C462.69 481.162 462.09 476.372 461.53 471.582C460.9 466.212 460.3 460.842 459.65 455.482C459.02 450.282 458.32 445.092 457.67 439.892C457.33 437.172 457.07 434.432 456.74 431.712C456.24 427.502 455.71 423.302 455.14 418.742Z" fill="#FFD400"/>
<path d="M79.3601 415.041C79.1801 416.011 79.0401 416.651 78.9601 417.301C78.0201 425.061 77.0801 432.821 76.1701 440.581C75.5701 445.701 75.0301 450.831 74.4301 455.951C73.8601 460.821 73.2501 465.691 72.6801 470.561C72.0501 475.841 71.4601 481.131 70.8201 486.421C70.1801 491.701 69.4901 496.971 68.8301 502.251C68.7101 503.241 68.5901 504.231 68.5301 505.231C68.2401 510.151 64.9301 513.021 60.0901 513.341C55.8601 513.621 51.5901 513.601 47.3601 513.341C42.9801 513.061 39.5201 510.411 39.0001 505.411C38.0401 496.231 36.7701 487.081 35.6901 477.921C34.8501 470.821 34.1501 463.701 33.3201 456.601C32.7101 451.401 31.9701 446.221 31.3301 441.021C30.7201 436.071 30.1801 431.111 29.6001 426.151C29.1801 422.531 28.7401 418.921 28.2901 415.061C26.7901 415.061 25.5701 415.041 24.3401 415.061C18.8201 415.191 13.1601 411.791 10.9501 406.051C10.1701 404.031 9.83011 401.911 10.0901 399.701C10.8101 393.591 11.4101 387.471 12.1201 381.351C12.9801 373.911 13.9201 366.491 14.7801 359.051C15.4001 353.681 15.9201 348.301 16.5201 342.931C16.8901 339.621 17.3101 336.331 17.7001 333.021C17.8201 332.031 17.9301 331.031 17.9501 330.041C18.0901 324.361 22.0101 318.981 28.1601 316.951C29.1601 316.621 30.3001 316.651 31.3701 316.651C46.2701 316.631 61.1801 316.731 76.0801 316.581C81.9301 316.521 87.6001 321.271 89.0901 326.731C89.4401 328.011 89.6501 329.331 89.8001 330.651C90.5101 337.011 91.1701 343.381 91.8501 349.751C92.4301 355.211 92.9601 360.671 93.5801 366.121C94.2101 371.651 94.9801 377.171 95.6101 382.701C96.2901 388.651 97.0301 394.601 97.4801 400.571C98.0301 407.801 92.1601 414.521 84.3501 415.041C82.7701 415.131 81.1901 415.041 79.3601 415.041Z" fill="#FFD400"/>
<path d="M609.7 415.05C609.37 417.35 609.02 419.39 608.79 421.45C607.98 428.47 607.24 435.5 606.41 442.52C605.56 449.7 604.61 456.88 603.76 464.06C603.14 469.26 602.64 474.48 602.01 479.68C601.17 486.7 600.24 493.7 599.37 500.72C599.21 502.04 599.13 503.37 599.04 504.7C598.72 509.74 595.55 513.24 589.73 513.39C585.9 513.49 582.07 513.44 578.24 513.39C575.94 513.36 573.84 512.62 572.09 511.09C570.74 509.91 569.83 508.49 569.61 506.64C568.94 500.86 568.22 495.08 567.51 489.3C566.84 483.94 566.12 478.58 565.48 473.22C564.87 468.18 564.35 463.14 563.77 458.1C563.19 453.14 562.57 448.19 561.99 443.24C561.37 437.95 560.79 432.66 560.16 427.38C559.67 423.35 559.13 419.33 558.57 415.06C557.22 415.06 555.99 415.04 554.76 415.06C545.82 415.25 538.78 406.9 540.58 398.02C541.21 394.93 541.39 391.75 541.75 388.62C542.15 385.15 542.52 381.68 542.9 378.21C543.53 372.42 544.15 366.64 544.79 360.85C545.06 358.37 545.37 355.89 545.64 353.41C546.55 345.23 547.41 337.04 548.36 328.86C549.18 321.81 555.79 316.59 561.13 316.63C570.87 316.7 580.61 316.58 590.35 316.58C596.01 316.58 601.67 316.73 607.33 316.64C612.18 316.57 618.8 321.61 619.64 327.85C620.5 334.28 621.13 340.74 621.88 347.19C622.54 352.81 623.23 358.42 623.88 364.04C624.16 366.44 624.35 368.84 624.62 371.24C625.6 379.92 626.62 388.59 627.56 397.27C627.96 400.93 628.15 404.58 626.07 407.93C623.33 412.35 619.42 414.78 614.22 415.05C612.74 415.12 611.25 415.05 609.7 415.05Z" fill="#FFD400"/>
<path d="M272.3 170.671C272.28 143.391 294.15 120.981 322.08 121.071C349.65 121.161 371.57 142.961 371.63 170.691C371.68 198.311 349.66 220.581 321.7 220.471C294 220.371 272.17 197.911 272.3 170.671Z" fill="#FFD400"/>
<path d="M484.19 297.761C469.79 298.051 457.28 285.851 457.44 270.811C457.6 255.971 469.4 244.071 484.58 244.161C499.7 244.251 511.32 256.851 511.2 271.331C511.09 285.641 498.72 298.271 484.19 297.761Z" fill="#FFD400"/>
<path d="M154.39 297.761C140.41 298.151 127.65 285.971 127.67 271.011C127.69 256.331 139.73 243.961 154.8 244.151C169.5 244.331 181.4 256.031 181.39 271.061C181.39 286.371 168.61 298.171 154.39 297.761Z" fill="#FFD400"/>
<path d="M583.82 262.102C596.42 261.942 607.36 271.572 607.64 285.132C607.91 298.092 597.93 308.822 584.46 309.072C571.38 309.312 560.91 298.872 560.63 286.032C560.37 273.342 570.51 262.272 583.82 262.102Z" fill="#FFD400"/>
<path d="M30.3803 285.44C30.0103 273.46 40.1903 262.04 53.8203 262.09C67.0003 262.14 77.4303 272.57 77.3403 285.72C77.2403 298.74 67.0003 309.02 53.7703 309.06C40.2203 309.12 29.9403 297.77 30.3803 285.44Z" fill="#FFD400"/>
<path d="M233.3 39.8301C237.04 40.0201 239.89 41.9601 241.86 45.3701C245.93 52.4001 250.06 59.4001 254.13 66.4301C259.72 76.1201 265.24 85.8401 270.86 95.5201C273.72 100.44 272.82 104.95 269.79 108.15C264.99 113.22 257.21 112.14 253.58 105.86C246.02 92.8101 238.54 79.7201 231.01 66.6401C228.78 62.7701 226.43 58.9601 224.3 55.0401C222.17 51.1301 222.19 47.2301 225.06 43.6201C227.09 41.0801 229.78 39.8201 233.3 39.8301Z" fill="#FFD400"/>
<path d="M380.95 111.282C374.78 111.502 368.27 103.912 372.95 95.7316C376.91 88.8216 380.9 81.9316 384.89 75.0416C390.63 65.1316 396.37 55.2316 402.12 45.3316C404.14 41.8516 407.06 39.8516 411.2 39.8516C417.11 39.8516 423.27 45.7216 420.24 53.5716C419.03 56.7116 417.09 59.5816 415.4 62.5216C408.77 74.0116 402.11 85.4916 395.46 96.9716C393.75 99.9216 392.1 102.892 390.34 105.812C388.28 109.222 385.4 111.352 380.95 111.282Z" fill="#FFD400"/>
<path d="M332.01 49.8709C332.01 59.4409 332.01 69.021 332.01 78.591C332.01 81.061 331.55 83.371 330 85.391C326.99 89.311 323.4 90.101 319.16 89.081C315.35 88.161 312.4 84.8709 312.09 80.671C312.02 79.681 311.94 78.681 311.94 77.681C311.93 59.111 311.92 40.5509 311.96 21.9809C311.96 20.3309 312.07 18.6309 312.49 17.051C313.88 11.821 319.53 9.54095 322.78 10.071C327.75 10.881 331.27 13.7809 331.94 19.4009C332.05 20.3009 332.01 21.231 332.01 22.141C332.02 31.3909 332.02 40.6309 332.01 49.8709Z" fill="#FFD400"/>
</g>
<defs>
<filter id="filter0_d_794_8584" x="0.00390625" y="-0.00390625" width="637.811" height="812.654" filterUnits="userSpaceOnUse" color-interpolation-filters="sRGB">
<feFlood flood-opacity="0" result="BackgroundImageFix"/>
<feColorMatrix in="SourceAlpha" type="matrix" values="0 0 0 0 0 0 0 0 0 0 0 0 0 0 0 0 0 0 127 0" result="hardAlpha"/>
<feOffset/>
<feGaussianBlur stdDeviation="5"/>
<feComposite in2="hardAlpha" operator="out"/>
<feColorMatrix type="matrix" values="0 0 0 0 1 0 0 0 0 0.831373 0 0 0 0 0 0 0 0 1 0"/>
<feBlend mode="normal" in2="BackgroundImageFix" result="effect1_dropShadow_794_8584"/>
<feBlend mode="normal" in="SourceGraphic" in2="effect1_dropShadow_794_8584" result="shape"/>
</filter>
</defs>
</svg>
