<svg width="676" height="671" viewBox="0 0 676 671" fill="none" xmlns="http://www.w3.org/2000/svg">
<g filter="url(#filter0_d_794_8607)">
<path d="M665.859 357.399C665.569 357.679 665.079 357.909 665.009 358.239C663.969 363.109 660.789 366.479 657.009 369.289C654.709 370.999 652.079 372.139 649.129 372.599C645.489 373.169 641.849 373.309 638.189 373.299C604.799 373.279 571.409 373.289 538.019 373.289C533.779 373.289 533.679 373.309 534.419 377.439C534.919 380.189 535.739 382.879 536.429 385.599C536.509 385.919 536.659 386.229 536.719 386.549C537.659 391.339 538.549 396.139 539.549 400.909C540.129 403.669 540.949 406.369 541.569 409.119C542.199 411.869 542.709 414.639 543.279 417.399C543.699 419.429 544.089 421.469 544.549 423.489C545.609 428.189 546.729 432.869 547.769 437.569C548.429 440.559 548.929 443.589 549.589 446.579C550.199 449.329 550.919 452.049 551.599 454.779C551.659 455.019 551.759 455.259 551.799 455.499C552.369 458.509 552.849 461.529 553.509 464.519C554.119 467.239 554.919 469.929 555.639 472.629C555.659 472.709 555.689 472.789 555.699 472.869C556.209 475.619 556.659 478.379 557.259 481.119C557.919 484.169 558.719 487.179 559.459 490.209C559.519 490.449 559.629 490.679 559.669 490.929C560.149 493.599 560.549 496.289 561.119 498.949C561.739 501.849 562.509 504.709 563.219 507.589C563.359 508.149 563.489 508.719 563.619 509.289C564.419 512.829 565.229 516.369 566.019 519.919C566.469 521.939 566.899 523.959 567.299 525.979C567.869 528.829 568.359 531.689 568.949 534.529C569.439 536.889 570.039 539.219 570.559 541.569C571.269 544.729 571.949 547.889 572.659 551.039C573.279 553.789 573.929 556.539 574.559 559.289C575.149 561.879 575.719 564.469 576.309 567.059C577.079 570.449 577.859 573.839 578.609 577.229C579.129 579.559 579.599 581.909 580.079 584.249C580.819 587.889 581.469 591.539 582.529 595.109C583.299 597.699 583.549 600.439 584.029 603.109C584.039 603.189 584.029 603.279 584.049 603.359C584.789 606.299 585.529 609.229 586.269 612.169C586.349 612.489 586.459 612.809 586.519 613.139C587.019 615.899 587.439 618.669 588.039 621.409C588.659 624.219 589.549 626.969 590.149 629.789C591.239 634.999 592.339 640.279 590.329 645.489C588.239 650.909 584.869 655.179 579.499 657.929C575.649 659.909 571.759 660.669 567.579 660.239C563.259 659.789 559.229 658.31 555.909 655.529C551.719 652.029 548.649 647.749 547.849 642.089C547.469 639.399 546.549 636.789 545.909 634.139C545.349 631.799 544.819 629.459 544.329 627.109C543.369 622.479 542.509 617.829 541.499 613.199C540.469 608.499 539.289 603.829 538.229 599.139C537.659 596.629 537.229 594.089 536.679 591.579C535.989 588.429 535.199 585.299 534.519 582.149C533.919 579.399 533.409 576.639 532.839 573.889C532.639 572.919 532.379 571.969 532.119 571.019C532.009 570.619 531.769 570.249 531.699 569.849C531.189 567.099 530.789 564.319 530.189 561.589C529.539 558.629 528.719 555.699 527.969 552.759C527.909 552.519 527.819 552.279 527.779 552.039C527.289 549.279 526.819 546.519 526.309 543.769C526.189 543.129 525.969 542.499 525.749 541.869C525.589 541.399 525.289 540.969 525.199 540.489C524.669 537.739 524.239 534.959 523.649 532.219C523.029 529.319 522.259 526.449 521.569 523.559C521.089 521.549 520.649 519.539 520.199 517.519C519.669 515.089 519.139 512.659 518.629 510.229C518.019 507.309 517.469 504.369 516.839 501.449C515.739 496.339 514.619 491.239 513.479 486.139C512.409 481.369 511.259 476.609 510.209 471.829C509.549 468.839 509.039 465.809 508.389 462.819C507.789 460.069 507.089 457.349 506.429 454.609C506.369 454.369 506.219 454.149 506.179 453.909C505.619 450.989 505.139 448.049 504.489 445.149C503.849 442.269 503.049 439.419 502.309 436.559C502.269 436.399 502.199 436.239 502.169 436.079C501.669 433.249 501.249 430.399 500.639 427.589C500.019 424.699 499.229 421.849 498.499 418.979C498.419 418.659 498.279 418.349 498.229 418.019C497.739 415.259 497.359 412.479 496.769 409.739C496.159 406.919 495.289 404.159 494.639 401.349C494.009 398.609 493.539 395.829 492.969 393.069C492.419 390.399 491.849 387.729 491.259 385.059C490.559 381.909 489.779 378.769 489.109 375.609C488.749 373.899 488.479 373.539 486.719 373.339C486.139 373.269 485.559 373.299 484.969 373.299C475.889 373.299 466.819 373.299 457.739 373.299C457.159 373.299 456.569 373.269 455.989 373.349C454.439 373.559 453.929 374.179 453.589 375.749C452.829 379.299 451.959 382.819 451.209 386.369C450.609 389.189 450.379 392.119 449.499 394.849C448.569 397.759 448.879 400.939 447.379 403.689C447.259 403.899 447.209 404.159 447.169 404.399C446.679 407.159 446.269 409.939 445.679 412.679C445.059 415.579 444.249 418.429 443.569 421.309C443.049 423.479 442.559 425.659 442.119 427.849C441.529 430.769 441.029 433.719 440.449 436.639C440.109 438.349 439.659 440.029 439.279 441.729C438.239 446.339 437.189 450.949 436.179 455.569C435.519 458.569 434.929 461.579 434.269 464.579C433.659 467.329 432.959 470.069 432.349 472.819C431.689 475.809 431.119 478.819 430.459 481.809C429.839 484.639 429.149 487.449 428.479 490.269C428.399 490.589 428.239 490.899 428.179 491.219C427.619 494.149 427.159 497.089 426.509 499.999C425.889 502.799 425.089 505.569 424.369 508.349C424.309 508.589 424.229 508.829 424.189 509.069C423.689 511.829 423.289 514.609 422.679 517.349C422.039 520.229 421.209 523.059 420.469 525.909C420.409 526.149 420.319 526.389 420.279 526.629C419.809 529.379 419.419 532.159 418.839 534.889C418.239 537.709 417.399 540.469 416.759 543.279C416.119 546.099 415.609 548.939 415.019 551.769C414.459 554.439 413.879 557.109 413.299 559.769C412.589 563.009 411.859 566.239 411.149 569.479C410.719 571.419 410.309 573.369 409.869 575.319C408.809 580.009 407.709 584.699 406.679 589.399C406.019 592.399 405.489 595.419 404.829 598.419C404.219 601.169 403.469 603.889 402.859 606.639C402.199 609.629 401.659 612.639 401.009 615.629C400.389 618.449 399.689 621.259 399.009 624.069C398.949 624.309 398.789 624.519 398.739 624.759C398.189 627.599 397.719 630.449 397.099 633.269C396.459 636.159 395.709 639.019 394.959 641.869C394.479 643.689 394.099 645.569 393.369 647.289C391.399 651.969 388.149 655.449 383.569 657.839C379.919 659.74 376.179 660.559 372.139 660.349C365.579 659.999 360.249 657.149 356.229 652.059C352.349 647.139 350.769 641.489 351.949 635.239C352.709 631.249 353.599 627.289 354.409 623.309C354.999 620.389 355.499 617.449 356.139 614.539C356.759 611.719 357.519 608.929 358.209 606.129C358.269 605.889 358.359 605.649 358.409 605.409C358.939 602.569 359.399 599.699 360.019 596.879C360.659 593.989 361.469 591.139 362.209 588.279C362.269 588.039 362.339 587.799 362.389 587.549C362.879 584.789 363.269 582.019 363.869 579.279C364.479 576.479 365.289 573.719 366.009 570.949C366.089 570.629 366.189 570.309 366.249 569.979C366.749 567.139 367.159 564.289 367.769 561.469C368.359 558.729 369.199 556.059 369.829 553.329C370.479 550.509 370.979 547.649 371.569 544.819C372.109 542.219 372.689 539.639 373.249 537.049C373.959 533.809 374.669 530.579 375.389 527.339C375.949 524.829 376.489 522.309 377.069 519.799C377.699 517.049 378.379 514.309 379.009 511.559C379.799 508.089 380.559 504.609 381.329 501.129C381.759 499.189 382.179 497.249 382.569 495.299C383.149 492.369 383.629 489.429 384.279 486.519C384.889 483.779 385.679 481.089 386.349 478.369C386.529 477.649 386.549 476.889 386.699 476.159C386.939 475.029 387.219 473.909 387.509 472.789C387.609 472.389 387.839 472.019 387.919 471.619C388.449 468.779 388.869 465.919 389.489 463.099C390.129 460.219 390.949 457.379 391.699 454.519C391.759 454.279 391.839 454.039 391.879 453.789C392.359 451.039 392.739 448.259 393.319 445.539C393.919 442.729 394.719 439.959 395.439 437.169C395.519 436.849 395.619 436.529 395.679 436.199C396.199 433.359 396.639 430.499 397.239 427.669C397.809 425.009 398.609 422.389 399.219 419.729C399.869 416.899 400.389 414.049 400.989 411.209C401.519 408.689 402.049 406.179 402.599 403.659C403.749 398.389 404.899 393.119 406.079 387.859C406.729 384.949 407.499 382.059 408.139 379.139C408.489 377.519 408.689 375.859 408.989 373.989C408.359 373.759 407.789 373.429 407.189 373.349C406.289 373.239 405.359 373.289 404.449 373.289C369.559 373.289 334.669 373.299 299.779 373.269C295.779 373.269 291.769 372.929 288.069 371.259C283.669 369.269 280.269 366.099 277.929 361.839C275.979 358.289 275.239 354.499 275.279 350.439C275.369 338.949 275.309 327.459 275.309 315.969C275.309 315.469 275.279 314.969 275.319 314.469C275.449 312.919 275.859 312.469 277.419 312.189C279.939 311.739 282.489 311.419 284.979 310.829C286.549 310.459 288.039 309.699 289.549 309.099C293.359 307.589 296.849 305.479 300.059 302.989C302.249 301.289 304.299 299.369 306.219 297.359C309.229 294.219 312.079 290.939 314.999 287.709C315.649 286.989 316.309 286.279 317.059 285.459C318.099 286.519 317.889 287.709 317.889 288.819C317.899 301.559 317.899 314.299 317.899 327.039C317.899 330.779 317.899 330.779 321.579 330.779C421.079 330.779 520.589 330.779 620.089 330.779C620.259 330.779 620.419 330.779 620.589 330.779C623.559 330.759 623.699 330.639 623.709 327.659C623.719 314.249 623.709 300.849 623.709 287.439C623.709 212.079 623.709 136.729 623.699 61.3695C623.699 60.0695 623.589 58.7695 623.529 57.3595C521.599 57.3595 419.959 57.3595 318.069 57.3595C317.999 58.5995 317.879 59.7295 317.879 60.8595C317.869 89.2495 317.869 117.649 317.869 146.039C317.869 146.789 317.879 147.539 317.859 148.289C317.799 150.429 317.779 150.389 315.609 151.099C311.379 152.479 307.169 153.949 303.329 156.209C300.839 157.679 298.419 159.359 296.279 161.299C291.429 165.709 287.069 170.589 283.009 175.749C280.949 178.369 278.599 180.759 276.139 183.509C275.769 182.799 275.409 182.359 275.329 181.879C275.209 181.149 275.279 180.389 275.279 179.639C275.279 132.339 275.309 85.0495 275.229 37.7495C275.219 32.5995 276.389 27.9195 279.279 23.7495C281.659 20.3095 284.899 17.8795 288.849 16.2695C291.729 15.0995 294.639 14.9395 297.629 14.8895C298.799 14.8695 299.959 14.8795 301.129 14.8795C414.369 14.8795 527.619 14.8795 640.859 14.8795C642.609 14.8795 644.359 14.8795 646.099 14.9695C654.009 15.3995 659.829 19.0895 663.589 26.1195C664.189 27.2295 664.759 28.2595 664.959 29.5095C665.019 29.9195 665.529 30.2495 665.839 30.6195C665.859 139.559 665.859 248.479 665.859 357.399Z" fill="#FFD400"/>
<path d="M76.4785 259.011C77.3785 260.151 78.1385 261.221 78.9985 262.181C90.2985 274.811 101.618 287.431 112.909 300.071C114.968 302.381 117.208 304.611 118.838 307.201C120.228 309.421 121.348 311.861 122.088 314.501C122.938 317.511 123.268 320.481 123.248 323.561C123.229 326.611 122.128 329.351 121.128 332.151C120.148 334.881 118.638 337.261 116.838 339.501C113.678 343.451 109.628 346.291 104.928 347.861C98.5385 349.991 92.1185 349.941 85.6885 347.311C80.8485 345.331 77.1585 342.101 73.7785 338.321C66.8785 330.621 59.9685 322.931 53.0585 315.241C41.6485 302.531 30.2085 289.851 18.8385 277.111C16.1385 274.091 13.7385 270.821 12.1885 267.031C10.1685 262.091 9.32849 256.891 10.6085 251.711C12.1585 245.461 15.3685 240.041 20.2585 235.681C26.6785 229.951 33.0485 224.161 39.3685 218.321C45.9585 212.231 52.4285 206.011 59.0185 199.921C67.2885 192.271 75.6385 184.701 83.9485 177.081C86.5185 174.721 89.1185 172.391 91.5885 169.921C93.7885 167.731 95.7085 165.251 97.9585 163.111C102.448 158.861 107.538 155.471 113.368 153.301C116.769 152.041 120.239 150.941 123.688 149.801C124.159 149.651 124.668 149.611 125.168 149.581C131.068 149.281 136.958 148.991 142.858 148.721C144.108 148.661 145.358 148.781 146.608 148.701C153.528 148.281 160.388 149.341 167.278 149.661C169.128 149.751 170.948 150.571 172.778 151.081C178.088 152.551 183.078 154.821 187.648 157.841C191.778 160.571 195.678 163.671 198.758 167.661C199.488 168.611 200.358 169.451 201.148 170.361C203.418 172.971 204.779 176.141 206.568 179.051C209.029 183.041 209.638 187.711 211.418 191.941C211.478 192.091 211.508 192.261 211.518 192.431C211.938 197.231 212.718 202.031 212.718 206.831C212.778 338.881 212.758 470.941 212.748 602.991C212.748 610.651 212.818 618.311 212.718 625.971C212.658 630.891 211.918 635.801 209.988 640.321C207.858 645.331 204.638 649.661 200.278 653.091C197.668 655.141 194.778 656.551 191.788 657.951C186.838 660.251 181.738 660.531 176.498 660.231C173.618 660.071 170.828 659.371 168.218 658.081C166.228 657.101 164.168 656.241 162.228 655.171C159.958 653.911 159.979 653.441 160.988 651.041C162.428 647.621 163.878 644.181 164.958 640.631C165.748 638.041 166.048 635.281 166.338 632.561C166.578 630.251 166.548 627.901 166.548 625.571C166.558 563.041 166.558 500.511 166.558 437.981C166.558 436.751 166.558 435.531 166.558 434.191C165.598 434.081 164.958 433.951 164.318 433.951C158.908 433.931 153.498 433.921 148.078 433.951C145.408 433.961 145.248 434.151 145.208 436.781C145.199 437.701 145.208 438.611 145.208 439.531C145.208 500.811 145.218 562.091 145.188 623.371C145.188 626.781 145.298 630.241 144.748 633.581C144.258 636.541 143.238 639.501 141.908 642.201C139.548 647.001 136.228 651.121 131.738 654.181C129.558 655.671 127.378 657.131 124.788 657.841C123.288 658.251 121.818 658.771 120.358 659.321C115.988 660.961 111.449 660.541 107.049 659.951C103.339 659.451 99.7485 657.971 96.4685 656.051C90.5885 652.601 86.1285 647.881 83.1485 641.651C80.7185 636.581 79.7585 631.261 79.7285 625.781C79.6185 604.301 79.6485 582.821 79.6285 561.341C79.5885 498.561 79.5485 435.781 79.5085 373.001C79.5085 372.581 79.5085 372.171 79.5085 371.751C79.5085 368.001 80.2185 367.261 83.7185 368.661C86.8685 369.921 90.0785 369.901 93.2685 370.021C97.3285 370.171 101.488 370.241 105.458 369.541C108.798 368.951 112.159 367.921 115.328 366.401C118.049 365.101 120.718 363.781 123.218 362.091C128.758 358.341 133.129 353.481 136.718 347.911C138.048 345.841 139.258 343.671 140.288 341.431C141.138 339.581 141.478 337.501 142.338 335.651C143.548 333.071 143.038 330.201 143.838 327.641C145.478 322.421 143.838 317.391 143.258 312.371C142.758 308.041 140.968 303.931 138.918 299.951C136.148 294.591 132.408 289.991 128.458 285.551C119.508 275.491 110.458 265.531 101.479 255.491C99.3685 253.121 99.5985 252.951 101.278 250.651C105.498 244.851 109.788 239.091 114.049 233.311C117.519 228.601 120.989 223.891 124.438 219.171C125.938 217.131 127.398 215.061 128.878 213.001C128.748 212.871 128.628 212.731 128.498 212.601C126.828 213.971 125.108 215.281 123.498 216.711C113.218 225.881 102.958 235.071 92.7085 244.271C88.0085 248.491 83.3285 252.741 78.6485 256.971C78.0085 257.581 77.4085 258.151 76.4785 259.011Z" fill="#FFD400"/>
<path d="M147.829 136.9C128.959 136.9 114.449 130.61 102.149 119.08C88.9587 106.72 82.4787 91.13 82.3987 73.34C82.3187 55.96 88.9487 40.71 101.299 28.49C113.589 16.33 128.649 9.99001 146.109 10C163.489 10.01 178.539 16.3 190.729 28.38C203.029 40.57 209.559 55.71 209.609 73.23C209.649 90.27 203.709 105.17 191.829 117.29C179.349 130.02 164.089 136.93 147.829 136.9Z" fill="#FFD400"/>
<path d="M233.889 196.83C235.299 197.89 236.779 198.87 238.119 200.02C244.639 205.59 251.129 211.21 257.629 216.81C260.599 219.37 263.559 221.93 266.529 224.49C267.589 225.4 268.259 225.33 269.359 224.07C273.949 218.8 278.539 213.53 283.089 208.23C291.229 198.75 299.339 189.24 307.489 179.77C310.149 176.69 313.509 174.44 317.149 172.78C321.289 170.89 325.789 170.81 330.299 171C335.299 171.21 339.659 173.01 343.689 175.86C344.129 176.17 344.939 176.25 345.469 176.08C347.569 175.41 349.629 174.6 351.689 173.82C354.739 172.67 357.769 171.48 360.829 170.37C362.659 169.71 364.549 169.18 366.399 168.57C367.639 168.16 368.859 167.72 370.089 167.29C372.939 166.28 375.779 165.25 378.619 164.23C381.709 163.12 384.809 162 387.899 160.89C392.249 159.32 396.589 157.72 400.959 156.19C403.769 155.2 406.629 154.33 409.439 153.35C412.479 152.29 415.499 151.15 418.529 150.06C420.149 149.47 421.769 148.86 423.399 148.31C427.499 146.93 431.639 145.65 435.699 144.18C439.369 142.85 442.989 141.45 446.729 140.3C449.759 139.37 452.589 137.76 455.619 136.83C459.329 135.7 462.919 134.27 466.559 132.99C468.989 132.14 471.769 131.85 474.159 132.87C476.679 133.94 478.609 136.01 479.029 138.94C479.619 143.08 477.979 145.95 474.129 148.24C464.299 154.09 454.409 159.82 444.529 165.58C440.449 167.96 436.319 170.24 432.259 172.64C428.119 175.09 424.069 177.67 419.919 180.11C414.729 183.17 409.469 186.12 404.259 189.15C401.409 190.8 398.609 192.53 395.749 194.16C392.449 196.04 389.089 197.8 385.799 199.69C382.909 201.36 380.109 203.19 377.229 204.89C371.559 208.24 365.859 211.53 360.179 214.87C356.129 217.26 352.109 219.72 348.049 222.09C345.459 223.6 342.789 224.98 340.199 226.49C339.379 226.97 338.619 227.62 337.999 228.34C332.639 234.5 327.309 240.67 321.989 246.87C312.749 257.64 303.489 268.39 294.309 279.21C291.789 282.18 289.259 285.09 285.909 287.19C283.459 288.72 280.939 289.95 278.109 290.68C275.429 291.38 272.789 291.86 270.009 291.81C266.949 291.76 264.169 290.76 261.369 289.79C256.739 288.17 253.109 285.1 249.549 281.82C245.439 278.03 241.089 274.5 236.699 271.03C234.549 269.34 233.599 267.48 233.619 264.69C233.719 246.54 233.689 228.4 233.659 210.25C233.659 207.26 233.449 204.27 233.359 201.28C233.319 199.9 233.349 198.51 233.349 197.13C233.519 197.03 233.699 196.93 233.889 196.83Z" fill="#FFD400"/>
</g>
<defs>
<filter id="filter0_d_794_8607" x="0" y="0" width="675.858" height="670.475" filterUnits="userSpaceOnUse" color-interpolation-filters="sRGB">
<feFlood flood-opacity="0" result="BackgroundImageFix"/>
<feColorMatrix in="SourceAlpha" type="matrix" values="0 0 0 0 0 0 0 0 0 0 0 0 0 0 0 0 0 0 127 0" result="hardAlpha"/>
<feOffset/>
<feGaussianBlur stdDeviation="5"/>
<feComposite in2="hardAlpha" operator="out"/>
<feColorMatrix type="matrix" values="0 0 0 0 1 0 0 0 0 0.831373 0 0 0 0 0 0 0 0 1 0"/>
<feBlend mode="normal" in2="BackgroundImageFix" result="effect1_dropShadow_794_8607"/>
<feBlend mode="normal" in="SourceGraphic" in2="effect1_dropShadow_794_8607" result="shape"/>
</filter>
</defs>
</svg>
