<svg width="488" height="580" viewBox="0 0 488 580" fill="none" xmlns="http://www.w3.org/2000/svg">
<g filter="url(#filter0_d_794_8547)">
<path d="M10 428.713C10 423.553 10 418.383 10 413.223C10.27 411.763 10.7 410.303 10.77 408.833C11.2 398.933 12.12 389.083 13.58 379.273C15.31 367.583 17.77 356.043 20.98 344.663C25.67 328.053 31.75 311.953 39.7 296.623C44.06 288.213 48.74 279.943 53.77 271.913C62.32 258.273 72.25 245.653 83.22 233.863C90.83 225.693 98.87 217.983 107.43 210.813C116.62 203.103 126.28 196.033 136.44 189.643C138.29 188.483 140.05 187.893 142.23 187.903C211.58 187.943 280.92 187.933 350.27 187.933C350.85 187.933 351.45 187.843 352.01 187.953C352.88 188.123 353.84 188.253 354.57 188.703C366.61 196.173 377.94 204.603 388.52 214.063C410.26 233.503 428.01 256.103 442.24 281.513C454.01 302.533 462.76 324.773 468.78 348.063C471.34 357.963 473.37 367.983 474.74 378.143C476.21 389.043 477.56 399.933 477.55 410.953C477.54 418.863 477.81 426.793 477.31 434.673C476.56 446.493 474.38 458.093 470.72 469.403C465.39 485.893 456.97 500.543 445.13 513.203C432.6 526.593 417.57 536.403 401.02 544.023C391.34 548.483 381.33 552.083 371.08 554.983C362.13 557.523 353.05 559.533 343.91 561.353C330.59 564.003 317.13 565.563 303.64 566.823C292.96 567.823 282.21 568.043 271.49 568.693C251.85 569.873 232.21 569.163 212.58 568.453C208.59 568.313 204.6 568.063 200.62 567.733C193.08 567.103 185.53 566.453 178 565.663C171.39 564.963 164.77 564.253 158.2 563.203C148.11 561.583 138.07 559.693 128.14 557.213C109.75 552.633 92 546.463 75.38 537.233C63.73 530.773 53.13 522.973 43.84 513.393C31.81 500.993 23.2 486.533 17.71 470.193C13.66 458.133 11.5 445.713 10.79 433.013C10.73 431.593 10.28 430.153 10 428.713ZM230.08 226.673C230.08 227.983 230.08 228.973 230.08 229.953C230.08 239.443 230.09 248.943 230.07 258.433C230.07 260.723 229.95 260.853 227.81 261.193C221.4 262.213 215.09 263.603 208.88 265.563C199.2 268.623 190.15 272.873 182.02 278.993C176.59 283.083 171.89 287.893 168.2 293.613C161.2 304.473 158.7 316.333 160.27 329.133C161.57 339.723 166.23 348.573 173.63 356.113C180.07 362.663 187.74 367.473 195.84 371.623C204.66 376.143 213.93 379.623 223.34 382.673C232.74 385.723 242.28 388.373 251.4 392.253C258.55 395.293 265.48 398.753 271.09 404.273C278.01 411.093 280.41 419.293 277.79 428.723C275.97 435.283 271.4 439.713 265.68 443.013C259.38 446.643 252.46 448.403 245.31 449.273C231.05 451.013 216.9 449.933 202.85 447.323C193.68 445.613 184.75 442.993 176.04 439.643C173.35 438.613 170.7 437.503 167.77 436.323C164.58 447.333 161.44 458.163 158.35 468.843C158.63 469.183 158.71 469.353 158.85 469.423C159.36 469.693 159.88 469.963 160.42 470.183C173.34 475.523 186.84 478.693 200.62 480.583C209.01 481.733 217.51 482.093 225.97 482.823C226.61 482.883 227.25 483.013 228.09 483.153C228.3 494.693 228.03 506.123 228.24 517.503C232.91 517.953 252.06 517.783 254.1 517.253C254.12 505.193 254.09 493.073 254.12 480.963C254.79 480.813 255.1 480.733 255.42 480.683C263.56 479.403 271.6 477.683 279.38 474.903C289.91 471.133 299.56 465.883 307.76 458.163C316.76 449.683 322.55 439.433 324.79 427.223C325.97 420.773 325.99 414.303 325.12 407.823C323.66 396.943 319.33 387.403 311.72 379.423C305.38 372.773 297.81 367.853 289.72 363.643C279.8 358.483 269.22 354.973 258.71 351.293C249.06 347.913 239.45 344.413 230.3 339.803C225.68 337.473 221.27 334.833 217.41 331.333C213.73 327.993 211.12 324.023 210.37 319.023C209 309.863 213.84 300.623 222.95 295.763C228.25 292.943 233.93 291.503 239.84 290.823C251.08 289.513 262.29 290.173 273.46 291.483C283.47 292.663 293.23 295.093 302.76 298.443C303.44 298.683 304.16 298.833 304.97 299.053C305.23 298.293 305.46 297.683 305.64 297.043C307.82 289.193 310 281.353 312.18 273.503C313.46 268.873 313.46 268.873 308.97 267.343C301.01 264.623 292.89 262.543 284.56 261.333C277.89 260.363 271.23 259.403 264.47 259.253C261.75 259.193 259.04 258.903 256.15 258.703C256.15 255.853 256.15 253.203 256.15 250.553C256.15 247.893 256.15 245.223 256.15 242.563C256.15 239.903 256.19 237.233 256.14 234.573C256.09 231.953 256.36 229.313 255.95 226.703C247.25 226.673 238.87 226.673 230.08 226.673Z" fill="#FFD400"/>
<path d="M244.07 141.913C215.19 141.913 186.31 141.873 157.43 141.973C154.29 141.983 151.66 141.153 149.44 139.133C145.58 135.603 141.59 132.153 138.12 128.263C130.17 119.343 123.52 109.493 118.17 98.7929C114.59 91.6229 111.74 84.1629 110.32 76.2429C108.62 66.7729 109.16 57.4929 113.32 48.6629C115.63 43.7829 119.3 40.1529 124 37.4829C129.86 34.1629 136.31 33.1029 142.85 32.3129C151.14 31.3129 159.47 31.6429 167.79 31.5829C172.61 31.5429 177.25 30.5729 181.52 28.4229C186.94 25.7029 192.19 22.6629 197.53 19.7729C202.13 17.2829 206.71 14.7329 211.38 12.3829C214.52 10.8029 217.91 9.94294 221.49 10.0029C224.4 10.0529 227.03 10.8729 229.44 12.5329C235.65 16.8229 240.32 22.5129 244.33 28.8129C249.77 37.3529 253.51 46.6929 257.23 56.0529C258.34 58.8329 259.5 61.5929 260.74 64.3229C261.25 65.4429 261.91 66.5329 262.7 67.4829C263.85 68.8529 265.19 68.9229 266.29 67.5229C267.24 66.3129 268.03 64.8629 268.47 63.3829C269.59 59.6429 270.44 55.8329 271.46 52.0629C272.85 46.9229 274.49 41.8829 277.06 37.1629C282.21 27.6729 290.1 21.7529 300.46 19.1929C304.06 18.3029 307.83 17.7429 311.54 17.6329C323.03 17.2829 334.51 17.6629 345.86 19.6529C352 20.7329 358.04 22.2129 363.7 25.0129C373.54 29.8929 378.98 37.7029 380.13 48.6329C380.93 56.2229 379.68 63.5829 377.94 70.8729C374.16 86.6529 367.29 101.083 358.53 114.673C353.55 122.393 348.1 129.713 341.43 136.073C339.93 137.503 338.26 138.763 336.61 140.023C335.25 141.063 333.69 141.433 331.94 141.433C316.04 141.443 300.15 141.543 284.25 141.573C270.85 141.603 257.45 141.583 244.05 141.583C244.07 141.703 244.07 141.813 244.07 141.913Z" fill="#FFD400"/>
<path d="M245.27 147.502C277.4 147.502 309.53 147.512 341.67 147.492C345.09 147.492 348.23 148.192 351.08 150.212C356.9 154.352 356.95 162.332 351.15 166.502C348.41 168.462 345.39 169.332 342.02 169.322C325.2 169.292 308.39 169.312 291.57 169.312C244.04 169.312 196.51 169.302 148.97 169.332C145.71 169.332 142.71 168.692 139.98 166.862C133.57 162.582 133.54 154.342 139.9 150.002C142.55 148.202 145.46 147.492 148.63 147.502C165.36 147.512 182.09 147.512 198.83 147.512C214.31 147.502 229.79 147.502 245.27 147.502Z" fill="#FFD400"/>
</g>
<defs>
<filter id="filter0_d_794_8547" x="0" y="0" width="487.614" height="579.324" filterUnits="userSpaceOnUse" color-interpolation-filters="sRGB">
<feFlood flood-opacity="0" result="BackgroundImageFix"/>
<feColorMatrix in="SourceAlpha" type="matrix" values="0 0 0 0 0 0 0 0 0 0 0 0 0 0 0 0 0 0 127 0" result="hardAlpha"/>
<feOffset/>
<feGaussianBlur stdDeviation="5"/>
<feComposite in2="hardAlpha" operator="out"/>
<feColorMatrix type="matrix" values="0 0 0 0 1 0 0 0 0 0.831373 0 0 0 0 0 0 0 0 1 0"/>
<feBlend mode="normal" in2="BackgroundImageFix" result="effect1_dropShadow_794_8547"/>
<feBlend mode="normal" in="SourceGraphic" in2="effect1_dropShadow_794_8547" result="shape"/>
</filter>
</defs>
</svg>
