<svg width="636" height="650" viewBox="0 0 636 650" fill="none" xmlns="http://www.w3.org/2000/svg">
<g filter="url(#filter0_d_794_8553)">
<path d="M352.75 639.662C352.53 639.302 352.38 638.712 352.08 638.612C346.35 636.712 342.44 632.802 340.37 627.292C339.38 624.642 338.99 621.622 338.97 618.762C338.84 602.442 338.91 586.122 338.91 569.802C338.91 544.992 338.91 520.182 338.91 495.362C338.91 494.462 338.91 493.562 338.91 492.412C337.93 492.302 337.13 492.142 336.33 492.132C323.09 492.112 309.84 492.132 296.6 492.102C295.09 492.102 293.9 492.422 292.89 493.662C283.25 505.482 273.58 517.262 263.92 529.052C263.56 529.482 263.28 529.982 262.83 530.642C263.78 531.532 264.66 532.362 265.56 533.192C275.82 542.642 286.09 552.082 296.32 561.552C298.88 563.922 300.95 566.602 302.23 569.992C304.83 576.852 302.91 585.412 297.44 590.332C289.8 597.212 279.28 597.542 270.89 589.802C259.88 579.652 248.9 569.482 237.9 559.322C233.59 555.342 229.25 551.372 224.92 547.412C221.69 544.452 218.92 541.002 218.12 536.712C217.11 531.312 217.65 525.922 221.32 521.362C225.66 515.962 230 510.562 234.38 505.202C247.64 488.972 260.92 472.762 274.2 456.542C276.92 453.222 279.56 449.832 282.38 446.612C283.85 444.942 284.46 443.182 284.45 440.972C284.4 422.492 284.34 404.002 284.5 385.522C284.53 382.032 283.61 379.542 281.14 376.992C267.3 362.652 253.65 348.122 239.95 333.652C234.61 328.012 229.28 322.352 223.96 316.692C221.44 314.012 219.48 310.972 218.29 307.482C218 306.642 218.02 305.692 217.93 304.792C217.52 300.762 218.28 296.882 219.34 293.012C220.35 289.352 221.05 285.612 221.95 281.922C223.02 277.512 224.18 273.112 225.27 268.702C225.84 266.382 226.27 264.022 226.89 261.712C228.24 256.722 228.74 251.462 231.59 246.942C234.4 242.512 238.14 239.592 243.39 238.252C248.82 236.862 253.67 237.812 258.14 240.742C263.13 244.012 265.82 248.802 266.42 254.792C266.75 258.092 266.25 261.222 265.33 264.382C264.61 266.842 264.31 269.412 263.71 271.912C262.73 276.022 261.66 280.112 260.64 284.212C259.75 287.742 258.87 291.282 257.99 294.822C257.65 296.202 257.93 297.332 258.97 298.432C268.41 308.342 277.83 318.272 287.19 328.252C288.36 329.502 289.65 329.742 291.21 329.742C311.28 329.722 331.36 329.732 351.43 329.732C354.76 329.732 358.09 329.682 361.42 329.752C362.92 329.782 363.88 329.212 364.7 327.962C371 318.312 377.34 308.682 383.67 299.062C386.21 295.212 388.75 291.362 391.33 287.552C392.3 286.122 392.66 284.642 392.66 282.902C392.62 242.682 392.63 202.472 392.64 162.252C392.64 160.672 392.68 159.092 392.74 157.512C393.02 150.802 396.48 146.042 402.05 142.682C412.22 136.542 423.79 141.812 428.18 150.162C429.84 153.322 430.42 156.732 430.53 160.212C430.68 164.622 430.57 169.032 430.57 173.452C430.57 211.752 430.58 250.052 430.56 288.352C430.56 294.102 429.13 299.342 425.85 304.242C413.67 322.482 401.68 340.852 389.61 359.162C385.83 364.902 382.05 370.642 378.21 376.332C377.24 377.762 376.76 379.182 376.77 380.942C376.82 406.832 376.79 432.732 376.81 458.622C376.84 499.582 376.91 540.552 376.95 581.512C376.96 594.502 376.89 607.492 376.96 620.482C376.99 627.052 374.27 632.162 369.09 636.002C367.71 637.022 366.04 637.632 364.53 638.472C363.91 638.812 363.34 639.262 362.75 639.662C359.41 639.662 356.08 639.662 352.75 639.662Z" fill="#FFD400"/>
<path d="M84.0001 234.563C84.0001 230.753 84.0001 227.383 84.0001 223.673C82.6601 223.873 81.6201 223.953 80.6101 224.193C73.2501 225.943 66.6301 224.203 60.5401 219.993C56.9901 217.543 54.2301 214.313 52.5201 210.413C50.3001 205.363 49.2301 200.183 50.5501 194.493C51.6601 189.733 53.6201 185.633 56.8901 182.143C60.8601 177.913 65.6601 175.263 71.5201 174.433C75.6501 173.843 79.6101 174.333 83.8001 175.383C83.8501 174.483 83.9401 173.683 83.9401 172.883C83.9501 169.223 83.9601 165.553 83.9401 161.893C83.9301 158.733 84.8701 155.953 86.7101 153.333C91.0701 147.113 101.24 146.883 105.89 153.063C107.97 155.823 108.88 158.903 108.88 162.323C108.87 179.063 108.87 195.793 108.88 212.533C108.88 213.473 108.98 214.413 109.03 215.363C109.19 215.383 109.36 215.403 109.52 215.423C111.51 212.423 113.57 209.463 115.43 206.393C115.89 205.623 115.84 204.483 115.84 203.513C115.86 185.943 115.86 168.373 115.86 150.803C115.86 147.303 115.88 143.813 115.87 140.313C115.86 135.703 117.88 132.243 121.69 129.713C126.55 126.493 133.2 127.393 137.13 131.683C139.84 134.643 140.71 138.193 140.72 141.963C140.79 158.863 140.75 175.773 140.76 192.673C140.76 193.643 140.84 194.613 140.9 195.913C142.23 195.683 143.26 195.433 144.3 195.343C146.61 195.143 148.92 194.943 151.23 194.883C152.83 194.843 153.13 194.723 153.27 193.123C153.35 192.293 153.32 191.463 153.32 190.623C153.32 181.633 153.27 172.633 153.36 163.643C153.39 161.253 153.33 158.623 154.27 156.523C156.46 151.603 160.13 148.383 166.3 148.543C172.15 148.693 175.87 152.413 177.45 156.693C178.23 158.793 178.1 161.293 178.12 163.603C178.18 175.763 178.15 187.913 178.15 200.073C178.15 207.733 178.21 215.393 178.12 223.053C178.09 225.493 178.58 227.623 180.06 229.563C181.11 230.943 181.98 232.463 183 233.873C183.25 234.223 183.76 234.383 184.26 234.703C185.84 232.333 187.3 230.053 188.85 227.853C189.62 226.763 189.75 225.613 189.75 224.333C189.73 204.183 189.73 184.033 189.74 163.883C189.74 162.633 189.75 161.383 189.81 160.133C190.03 154.943 192.72 151.273 197.36 149.413C201.89 147.593 206.44 148.163 210.14 151.643C212 153.383 213.33 155.503 213.92 158.183C214.57 161.083 214.6 163.943 214.61 166.843C214.62 175.173 214.61 183.493 214.62 191.823C214.62 192.783 214.75 193.743 214.82 194.803C217.55 194.803 220.01 194.803 222.74 194.803C222.78 194.033 222.87 193.233 222.87 192.423C222.89 188.923 222.91 185.433 222.87 181.933C222.83 178.773 223.72 176.003 225.57 173.363C229.38 167.943 238.4 166.293 244.09 172.233C246.59 174.843 247.72 178.003 247.75 181.463C247.85 193.703 247.8 205.943 247.79 218.183C247.79 220.303 247.49 220.603 245.4 220.873C241.27 221.393 237.21 222.093 233.36 223.813C229.46 225.553 225.88 227.773 222.9 230.833C219.48 234.353 216.59 238.243 214.82 242.903C214.03 244.993 213.28 245.223 211.16 244.403C208.4 243.333 208.36 243.323 206.72 245.753C204.79 248.613 202.92 251.513 200.84 254.683C204.21 255.953 207.53 254.633 210.72 255.633C210.72 256.333 210.85 257.003 210.7 257.623C209.68 261.893 208.57 266.133 207.55 270.403C206.57 274.513 205.68 278.643 204.71 282.753C203.98 285.813 203.2 288.863 202.41 291.913C200.75 298.383 200.24 304.953 202.08 311.403C203.2 315.333 204.71 319.193 207.21 322.613C210.56 327.193 214.52 331.203 218.39 335.293C228.09 345.533 237.78 355.783 247.52 365.983C248.71 367.233 249.12 368.573 249.11 370.253C249.08 394.233 249.09 418.213 249.09 442.193C249.09 445.303 248.74 448.273 246.79 450.933C241.66 457.943 231.4 457.683 226.75 450.613C224.83 447.683 224.39 444.453 224.38 441.113C224.35 429.203 224.36 417.303 224.37 405.393C224.37 391.243 224.38 377.083 224.39 362.933C224.39 360.873 224.31 360.723 222.38 360.703C219.31 360.663 216.25 360.693 212.85 360.693C212.85 361.863 212.85 362.753 212.85 363.633C212.85 389.363 212.87 415.093 212.81 440.823C212.8 443.203 212.58 445.693 211.87 447.953C210.68 451.703 207.96 454.223 204.19 455.473C199.56 457.013 195.46 455.803 191.97 452.653C190.28 451.133 189.24 449.123 188.65 446.763C187.61 442.643 187.95 438.503 187.94 434.373C187.9 405.063 187.87 375.753 187.94 346.443C187.98 328.053 188.14 309.653 188.36 291.263C188.39 288.373 187.9 285.863 186.02 283.633C185.39 282.893 184.96 281.983 184.46 281.173C184.23 281.163 183.99 281.083 183.91 281.163C181.72 283.413 179.6 285.663 179.61 289.143C179.64 305.633 179.6 322.113 179.63 338.603C179.69 372.903 179.78 407.203 179.86 441.513C179.87 444.633 179.4 447.683 177.71 450.313C173.38 457.033 164.47 458.273 158.43 452.193C156.1 449.853 155.15 446.713 154.96 443.403C154.91 442.493 154.94 441.573 154.94 440.653C154.94 415.003 154.94 389.363 154.94 363.713C154.94 362.813 154.94 361.923 154.94 360.873C151.03 360.873 147.34 360.873 143.33 360.873C143.33 362.033 143.33 363.003 143.33 363.973C143.33 389.533 143.34 415.093 143.31 440.663C143.31 442.483 143.13 444.313 142.91 446.133C142.39 450.463 137.97 454.653 133.88 455.733C128.67 457.103 122.64 454.303 120.2 449.623C119.49 448.253 119.12 446.673 118.84 445.143C118.6 443.853 118.67 442.493 118.67 441.163C118.66 409.273 118.65 377.383 118.67 345.493C118.68 326.843 118.73 308.193 118.81 289.543C118.82 287.723 118.36 286.243 117.3 284.713C114.07 280.053 111.04 275.253 107.91 270.513C107.51 269.913 107.05 269.343 106.59 268.733C105.48 269.373 105.83 270.283 105.83 271.043C105.81 281.863 105.81 292.693 105.82 303.513C105.88 342.233 105.94 380.943 106.02 419.663C106.02 422.093 105.86 424.463 105.16 426.813C104 430.693 101.41 433.203 97.7701 434.623C93.0001 436.493 88.7301 435.193 85.1101 431.893C83.2901 430.233 82.2001 428.063 81.7001 425.493C80.9101 421.433 81.1001 417.373 81.0901 413.313C81.0701 389.913 81.0801 366.523 81.0801 343.123C81.0801 342.143 80.9801 341.173 80.9201 340.033C77.1901 340.033 73.6601 340.033 69.8701 340.033C69.8101 341.113 69.7101 342.163 69.7101 343.213C69.7001 369.113 69.7101 395.003 69.6901 420.903C69.6901 424.193 69.0701 427.283 67.1001 430.073C61.9701 437.343 52.1501 437.073 47.0901 430.043C45.6701 428.073 45.0001 425.753 44.8501 423.323C44.8001 422.413 44.8201 421.493 44.8201 420.573C44.8201 388.353 44.8101 356.123 44.8201 323.903C44.8301 305.423 44.8801 286.933 44.9001 268.453C44.9001 267.223 44.9101 266.083 44.1201 264.903C38.5901 256.623 33.1601 248.273 27.7001 239.943C22.6901 232.303 17.7001 224.653 12.6601 217.033C10.8601 214.323 9.99009 211.413 10.0001 208.143C10.0401 185.913 9.99009 163.683 10.0501 141.453C10.0601 136.663 11.8101 132.613 15.9601 129.823C20.9801 126.453 27.8201 127.383 31.7701 131.993C33.7901 134.353 34.7601 137.113 34.9401 140.173C35.0001 141.253 34.9701 142.333 34.9701 143.423C34.9701 163.493 34.9901 183.553 34.9401 203.623C34.9401 205.283 35.3201 206.663 36.2301 208.033C41.5501 216.033 46.8501 224.033 52.0701 232.093C53.2801 233.953 54.6101 234.743 56.9301 234.693C65.0901 234.523 73.2501 234.623 81.4201 234.633C82.2501 234.563 83.0601 234.563 84.0001 234.563ZM127.89 233.543C127.74 233.693 127.6 233.833 127.45 233.983C127.3 234.053 127.09 234.073 127.02 234.183C125.02 237.113 123.01 240.053 121.05 243.013C120.42 243.963 120.71 244.893 121.31 245.783C123.01 248.323 124.71 250.863 126.36 253.423C127.26 254.823 128.41 255.323 130.11 255.283C135.18 255.173 140.25 255.243 145.32 255.243C151.64 255.243 157.95 255.253 164.27 255.233C165.12 255.233 166.12 255.523 166.78 254.363C164.66 251.143 162.53 247.933 160.42 244.713C159.75 243.693 158.87 243.663 157.81 243.913C155.73 244.413 153.63 244.843 151.54 245.343C148.25 246.133 144.99 245.303 141.98 244.463C136.65 242.973 132.16 239.843 128.92 235.193C128.55 234.673 128.23 234.093 127.89 233.543Z" fill="#FFD400"/>
<path d="M488.66 369.802C485.23 369.802 482.16 369.802 479.09 369.802C478.06 369.802 477.57 370.382 477.52 371.352C477.48 372.102 477.49 372.852 477.49 373.602C477.49 399.082 477.51 424.562 477.45 450.042C477.44 452.422 477.33 454.972 476.49 457.152C475.08 460.832 472.35 463.632 468.39 464.642C464.43 465.652 460.55 465.212 457.33 462.452C454.91 460.382 452.98 457.902 452.82 454.492C452.75 452.912 452.63 451.332 452.63 449.752C452.62 417.942 452.6 386.142 452.63 354.332C452.65 336.012 452.67 317.702 452.87 299.382C452.91 295.312 450.85 292.552 448.26 290.002C447.47 289.222 447 288.542 446.97 287.502C446.96 287.002 446.96 286.502 446.96 286.002C446.96 273.262 446.98 260.522 446.94 247.782C446.94 245.962 447.2 244.592 448.87 243.302C450.42 242.112 451.32 240.062 452.46 238.372C453.5 236.832 453.97 235.182 453.96 233.252C453.9 212.852 453.9 192.452 453.94 172.052C453.95 168.712 454.55 165.522 456.63 162.692C459.4 158.942 463.16 157.292 467.61 157.692C471.77 158.072 475.18 160.162 477.2 163.992C478.41 166.292 478.89 168.812 478.88 171.432C478.85 181.262 478.87 191.082 478.87 200.912C478.87 201.742 478.87 202.562 478.87 203.582C481.06 204.292 483.25 203.602 485.34 203.932C487.35 204.252 489.35 204.602 491.53 204.962C491.59 204.042 491.67 203.392 491.67 202.752C491.68 185.512 491.67 168.282 491.69 151.042C491.69 147.592 492.42 144.362 494.59 141.522C496.11 139.532 498.09 138.412 500.38 137.532C503.12 136.492 505.79 136.702 508.4 137.682C510.49 138.472 512.34 139.672 513.75 141.522C515.98 144.452 516.58 147.842 516.59 151.352C516.64 166.422 516.61 181.492 516.61 196.562C516.61 201.972 516.65 207.382 516.59 212.802C516.57 214.372 516.91 215.732 517.79 217.022C519.14 219.002 520.41 221.042 521.75 223.032C522.07 223.512 522.56 223.882 523.32 224.652C523.45 223.612 523.56 223.152 523.56 222.692C523.56 205.622 523.54 188.552 523.55 171.482C523.55 168.102 524.3 164.942 526.48 162.202C529.25 158.722 532.94 157.242 537.21 157.692C541.92 158.182 545.48 160.792 547.25 165.192C548.06 167.202 548.16 169.572 548.26 171.792C548.42 175.202 548.28 178.622 548.33 182.032C548.34 182.792 548.58 183.542 548.72 184.342C566.67 178.992 581.1 192.002 582.33 206.442C583.1 215.512 579.49 223.012 572.39 228.662C565.31 234.302 557.19 235.042 548.3 232.692C548.3 233.902 548.33 234.712 548.29 235.512C548.2 237.332 548.13 239.162 547.93 240.982C547.68 243.252 547.8 243.492 550.04 243.522C552.95 243.562 555.87 243.542 558.79 243.542C564.54 243.542 570.29 243.492 576.03 243.562C577.88 243.582 578.97 242.982 580.02 241.342C585.21 233.222 590.55 225.192 595.92 217.192C596.97 215.632 597.23 214.022 597.23 212.262C597.23 198.772 597.23 185.282 597.23 171.792C597.23 165.552 597.18 159.302 597.26 153.062C597.29 150.742 597.3 148.332 597.9 146.122C599.04 141.912 601.68 138.952 606.01 137.502C608.79 136.572 611.38 136.842 614.05 137.652C617.65 138.742 621.68 143.752 621.7 146.722C621.71 148.962 621.99 151.212 622 153.452C622.02 174.102 622.02 194.752 622 215.402C622 217.392 622.08 219.452 621.64 221.372C621.21 223.262 620.42 225.172 619.36 226.792C609.63 241.592 599.8 256.342 590.01 271.102C589.92 271.242 589.87 271.412 589.76 271.532C587.8 273.902 587.43 276.622 587.43 279.642C587.54 313.192 587.55 346.752 587.58 380.312C587.59 397.052 587.57 413.782 587.59 430.522C587.59 433.762 586.88 436.722 584.91 439.412C582.27 443.022 578.68 444.542 574.38 444.332C569.69 444.102 566.18 441.642 564.16 437.522C563.18 435.522 562.79 433.072 562.74 430.822C562.57 422.912 562.67 415.002 562.67 407.092C562.67 388.772 562.67 370.452 562.67 352.142C562.67 351.642 562.66 351.142 562.67 350.642C562.71 349.572 562.07 349.092 561.14 349.082C558.39 349.042 555.64 349.052 552.9 349.082C551.8 349.092 551.24 349.752 551.18 350.822C551.14 351.572 551.16 352.322 551.16 353.072C551.16 378.132 551.17 403.202 551.13 428.262C551.13 430.662 550.92 433.092 550.53 435.452C550.14 437.822 548.62 439.722 546.87 441.242C540.28 446.962 530.76 444.712 527.14 436.432C526.5 434.982 526.63 433.172 526.48 431.532C526.39 430.542 526.45 429.532 526.45 428.532C526.45 401.802 526.42 375.072 526.46 348.352C526.49 325.622 526.59 302.892 526.65 280.162C526.65 279.272 526.65 278.372 526.65 276.932C525.87 277.672 525.4 277.982 525.12 278.422C521.58 283.822 518.09 289.262 514.5 294.632C513.85 295.612 513.64 296.562 513.64 297.662C513.66 315.312 513.67 332.962 513.68 350.622C513.69 368.852 513.7 387.092 513.7 405.322C513.7 420.812 513.68 436.292 513.71 451.782C513.72 454.882 512.96 457.632 511.11 460.172C508.53 463.702 505.05 465.152 500.81 465.072C495.8 464.972 492.35 462.212 490.19 458.052C489.17 456.092 488.87 453.592 488.84 451.322C488.71 439.582 488.78 427.842 488.78 416.102C488.78 401.782 488.78 387.462 488.77 373.142C488.8 372.152 488.72 371.172 488.66 369.802ZM505.23 242.972C504.62 243.362 504.15 243.542 503.85 243.872C503.13 244.662 502.5 245.542 501.79 246.342C498.63 249.912 494.73 252.392 490.18 253.682C484.95 255.162 479.67 255.262 474.52 253.152C473.32 252.662 472.48 252.942 471.78 254.042C469.95 256.892 468.04 259.692 466.2 262.542C465.45 263.692 465.69 264.182 467 264.322C467.58 264.382 468.16 264.352 468.75 264.352C476.07 264.352 483.39 264.352 490.71 264.352C494.7 264.352 498.7 264.322 502.69 264.362C503.93 264.372 504.95 264.122 505.67 263.002C507.39 260.302 509.07 257.562 510.93 254.952C511.79 253.742 511.9 252.932 510.99 251.672C509.01 248.962 507.26 246.072 505.23 242.972Z" fill="#FFD400"/>
<path d="M369.88 265.873C370.07 289.833 349.12 309.363 325.87 308.823C301.48 308.263 282.21 288.023 283.1 263.383C283.5 252.153 288.11 242.253 296.25 234.293C304.86 225.873 315.43 221.603 327.33 221.923C351.99 222.593 370.19 242.403 369.88 265.873Z" fill="#FFD400"/>
<path d="M443.88 308.242C443.96 309.922 444.06 310.972 444.06 312.032C444.07 323.772 443.81 335.512 444.13 347.242C445.04 381.282 444.27 415.312 444.5 449.352C444.52 451.892 444.33 454.592 443.48 456.942C442.12 460.742 439.37 463.682 435.3 464.642C428.56 466.242 423.02 463.392 420.39 457.052C420.11 456.382 419.91 455.642 419.85 454.922C419.73 453.262 419.67 451.602 419.67 449.932C419.66 424.372 419.66 398.822 419.66 373.262C419.66 372.682 419.65 372.092 419.66 371.512C419.7 370.352 419.07 369.812 417.99 369.812C414.76 369.792 411.52 369.802 408.04 369.802C407.96 371.152 407.83 372.282 407.83 373.412C407.82 399.222 407.82 425.022 407.82 450.832C407.82 453.082 407.8 455.312 406.85 457.442C404.73 462.192 400.63 465.152 395.39 465.072C394.93 465.062 394.48 464.752 393.88 464.532C393.8 462.102 393.65 459.702 393.65 457.292C393.63 433.572 393.65 409.842 393.61 386.122C393.61 384.292 394.07 382.752 395.07 381.252C402.83 369.602 410.58 357.942 418.29 346.262C424.82 336.372 431.3 326.462 437.77 316.542C439.25 314.272 440.58 311.902 442.04 309.622C442.31 309.192 442.9 308.952 443.88 308.242Z" fill="#FFD400"/>
<path d="M275.43 233.232C274.65 232.682 273.9 232.322 273.38 231.762C270.04 228.182 266.02 225.652 261.52 223.822C259.67 223.072 258.81 221.922 258.83 219.682C258.94 200.622 258.85 181.552 258.93 162.492C258.94 159.192 259.72 156.042 261.79 153.232C266.59 146.732 277.06 147.152 281.29 153.522C282.87 155.902 283.81 158.342 283.81 161.182C283.8 166.422 283.81 171.672 283.83 176.912C283.83 177.722 283.9 178.532 283.95 179.602C284.72 179.372 285.28 179.302 285.73 179.042C292.43 175.082 301.81 179.292 303.23 187.012C303.54 188.722 303.81 190.462 303.84 192.192C303.92 197.102 303.81 202.012 303.9 206.922C303.94 208.782 303.22 209.902 301.57 210.602C293.07 214.222 286.26 220.102 280.17 226.872C278.47 228.772 277.11 230.962 275.43 233.232Z" fill="#FFD400"/>
<path d="M372.33 225.901C370.24 223.931 368.19 221.931 366.07 220.001C361.82 216.131 356.99 213.111 351.77 210.741C345.45 207.861 338.85 206.011 331.88 205.641C331.3 205.611 330.72 205.531 330.15 205.421C329.21 205.241 328.7 204.671 328.71 203.691C328.71 203.521 328.68 203.361 328.69 203.191C328.72 195.371 328.78 187.551 328.78 179.741C328.78 173.571 334.94 168.201 341.25 168.461C343.28 168.541 345.19 168.931 346.9 170.121C347.26 170.371 347.77 170.421 348.29 170.591C348.71 168.871 349.01 167.271 349.5 165.741C351.96 158.031 362.15 154.611 369.19 160.851C372.33 163.631 373.28 167.411 373.34 171.421C373.42 176.831 373.36 182.231 373.36 187.641C373.36 199.371 373.37 211.101 373.34 222.831C373.34 223.851 373.12 224.861 373.01 225.881C372.78 225.871 372.55 225.891 372.33 225.901Z" fill="#FFD400"/>
<path d="M238.99 92.5627C238.99 97.3027 238.9 102.053 239.02 106.793C239.11 110.053 240.28 113.093 241.55 116.063C243.1 119.683 246.11 121.583 249.67 122.853C251.61 123.543 253.58 124.193 254.97 125.923C256.81 128.223 257.17 130.663 256.06 133.383C254.02 138.403 249.44 141.093 244.56 139.843C240.53 138.813 236.84 136.983 233.56 134.283C228.49 130.093 225.17 124.763 223.12 118.653C222.37 116.413 222.02 113.943 222 111.563C221.92 104.073 222.12 96.5827 222.12 89.0927C222.12 86.0227 222.21 82.8827 221.65 79.8927C221.05 76.6727 219.87 73.4927 217.72 70.9027C216.38 69.2827 214.59 68.2227 212.43 67.8827C210.71 67.6127 208.99 67.2827 207.28 66.9427C204.07 66.3127 202.1 64.0527 201.75 60.8227C201.32 56.7427 202.65 53.5127 206.11 51.2127C207.85 50.0527 209.83 49.6727 211.82 49.7627C218.76 50.0827 224.62 52.6527 229.4 57.8727C232.81 61.6027 235.52 65.7427 237.37 70.3527C238.4 72.9127 238.87 75.8127 239.02 78.5927C239.28 83.2327 239.09 87.9027 239.09 92.5627C239.07 92.5627 239.03 92.5627 238.99 92.5627Z" fill="#FFD400"/>
<path d="M257.32 10.022C262.48 9.79205 267 11.372 271.32 14.272C275.26 16.912 278.52 20.122 281.32 23.832C283.63 26.892 285.13 30.372 285.93 34.162C286.58 37.242 287.44 40.282 288.11 43.362C288.75 46.272 289.14 49.242 289.86 52.122C290.9 56.282 291.88 60.462 294.18 64.212C295.58 66.482 296.76 68.932 299.3 70.092C301.39 71.042 303.61 71.702 305.79 72.432C306.25 72.5821 306.78 72.5321 307.28 72.562C314.53 73.0321 316.39 79.682 313.5 84.962C311.65 88.342 308.75 90.072 304.74 90.032C296.83 89.942 290.36 86.7121 284.75 81.372C281.46 78.2421 279.13 74.482 277.35 70.372C276.61 68.652 276.29 66.752 275.83 64.922C275.21 62.452 274.64 59.962 274.06 57.482C273.36 54.502 272.59 51.532 271.97 48.532C270.8 42.872 269.31 37.362 265.8 32.592C263.16 29.012 259.76 27.352 255.3 27.842C252.84 28.112 250.42 28.582 248 27.292C244.81 25.582 243.09 20.742 244.22 17.402C245.85 12.602 249.35 10.272 254.33 10.022C255.32 9.98205 256.32 10.022 257.32 10.022Z" fill="#FFD400"/>
<path d="M558.42 25.6722C563.17 25.3122 566.28 28.7922 567.3 32.0822C568.47 35.8522 568.22 39.3022 564.81 41.4022C563.44 42.2422 561.79 42.7422 560.2 43.0722C555.91 43.9622 552.84 46.0222 551.44 50.4522C549.78 55.7222 549.24 60.9822 550.31 66.4022C550.41 66.8922 550.47 67.3922 550.51 67.8822C550.95 72.5122 551.36 77.1422 551.82 81.7722C552.07 84.3322 552.54 86.8722 552.65 89.4322C552.85 94.1522 551.75 98.6122 549.55 102.822C547.51 106.732 545.36 110.502 541.88 113.392C539.23 115.592 536.33 117.242 533.14 118.482C528.35 120.342 523.24 117.912 521.16 113.632C519.24 109.672 519.64 106.002 523.95 103.412C525.51 102.472 527.19 101.752 528.73 100.782C532.1 98.6822 533.65 95.4322 534.61 91.6822C536.2 85.4222 535.02 79.3022 534.05 73.1722C533.16 67.5022 532.39 61.8022 532.36 56.0822C532.34 52.3422 532.97 48.6022 534.56 44.9822C536.81 39.8422 539.56 35.1422 543.76 31.4222C547.78 27.8422 552.49 25.7422 558.42 25.6722Z" fill="#FFD400"/>
<path d="M116.41 99.7215C116.36 104.912 114.93 110.832 111.04 116.042C106.76 121.772 100.17 121.032 96.3902 117.712C94.3102 115.882 92.8202 112.532 94.7102 109.282C95.3702 108.142 95.8902 106.932 96.5702 105.802C99.0402 101.672 99.2702 97.5415 97.3602 93.0315C94.7902 86.9815 90.5802 82.1615 86.4802 77.2115C83.1202 73.1515 79.6802 69.1515 76.5002 64.9615C73.7602 61.3515 72.2802 57.1715 71.8402 52.6215C71.6802 50.9015 71.0402 49.2015 71.0902 47.5115C71.1902 44.4415 71.2402 41.2815 72.0402 38.3515C73.7402 32.1015 77.1102 26.9015 83.1502 23.8915C86.4302 22.2515 91.3802 23.6615 93.9202 26.8515C96.7002 30.3415 96.6602 33.6115 93.7802 36.9515C93.1302 37.7015 92.4702 38.4515 91.7602 39.1515C88.3802 42.4615 88.0102 46.4815 89.3202 50.6915C90.7602 55.3215 93.2602 59.4015 96.3802 63.1315C101.16 68.8515 105.87 74.6315 110.48 80.4915C114.63 85.7415 116.32 91.9015 116.41 99.7215Z" fill="#FFD400"/>
<path d="M437.58 36.7623C437.31 40.7523 436.57 45.0023 435.16 49.2523C433.61 53.9223 431.01 57.6923 427.65 61.0323C424.36 64.3123 420.85 67.3523 417.44 70.5023C415.43 72.3523 413.45 74.2423 411.42 76.0723C408.54 78.6523 406.46 81.8423 404.59 85.1723C402.41 89.0723 402.36 93.0723 404.24 97.1223C404.8 98.3223 405.25 99.5723 405.73 100.812C407.31 104.962 404.11 108.572 401.04 109.752C394.4 112.312 389.75 108.362 387.72 103.692C386.27 100.382 385.54 96.9423 385.11 93.4323C384.69 89.9423 385.45 86.5223 386.31 83.1223C387.34 79.0623 389.08 75.3523 391.79 72.1923C394.05 69.5623 396.55 67.1323 399.06 64.7423C403.31 60.6823 407.71 56.7923 411.93 52.7023C415.28 49.4623 418.02 45.6323 419.48 41.2423C420.49 38.2023 420.27 34.8523 418.13 32.0223C417.48 31.1623 416.83 30.3023 416.21 29.4323C412.35 24.0523 415.57 18.6823 420.81 16.8523C424.41 15.5923 427.53 16.4923 430.26 18.9523C434.85 23.1123 437.89 30.8223 437.58 36.7623Z" fill="#FFD400"/>
<path d="M258.18 449.523C257.88 448.483 257.66 448.053 257.63 447.603C257.12 439.313 257.5 379.693 258.13 377.633C258.68 378.043 259.23 378.343 259.65 378.773C261.83 381.043 263.93 383.383 266.14 385.623C267.28 386.773 267.69 388.053 267.68 389.653C267.64 405.043 267.67 420.433 267.63 435.833C267.63 436.853 267.43 438.083 266.85 438.853C264.18 442.313 261.35 445.653 258.18 449.523Z" fill="#FFD400"/>
<path d="M601.74 92.1217C601.52 86.0317 606.23 79.8017 613.68 79.8717C621.07 79.9417 625.57 85.5917 625.53 92.0017C625.48 99.1117 620.87 104.312 613.68 104.372C606.66 104.412 601.77 99.0717 601.74 92.1217Z" fill="#FFD400"/>
<path d="M364.8 28.043C372.21 28.313 376.56 33.173 376.57 40.153C376.58 47.333 372.6 52.403 364.85 52.433C357.36 52.463 353.15 47.883 352.98 40.333C352.82 33.333 357.49 28.203 364.8 28.043Z" fill="#FFD400"/>
<path d="M463.6 66.1517C463.41 58.8417 469.11 53.8917 475.25 53.9717C482.7 54.0717 487.26 59.0617 487.21 66.1317C487.16 73.3617 483.07 78.2517 475.38 78.3917C468.43 78.5117 463.52 73.3017 463.6 66.1517Z" fill="#FFD400"/>
<path d="M143.85 105.581C143.95 101.211 145.67 97.6212 149.51 95.4712C152.09 94.0312 154.91 93.2012 158.08 94.0312C161.47 94.9212 164.23 96.4812 165.84 99.6412C167.24 102.391 167.97 105.181 167.2 108.431C166.48 111.511 165.19 114.041 162.65 115.831C159.75 117.871 156.52 118.551 152.98 117.811C147.24 116.601 143.53 111.211 143.85 105.581Z" fill="#FFD400"/>
<path d="M353.91 101.182C354.84 108.862 349.74 114.102 343.18 114.662C337.39 115.152 330.95 111.292 330.53 103.222C330.2 96.8922 333.71 90.6822 341.89 90.2822C347.13 90.0322 353.35 92.9522 353.91 101.182Z" fill="#FFD400"/>
<path d="M27.9302 71.4113C28.6602 64.0213 32.3102 59.1713 39.8802 59.2013C47.3502 59.2313 51.5202 63.7713 51.6102 71.2413C51.6902 78.6013 47.7102 83.5013 39.9302 83.5713C32.4902 83.6313 28.7402 79.0113 27.9302 71.4113Z" fill="#FFD400"/>
</g>
<defs>
<filter id="filter0_d_794_8553" x="0" y="0" width="635.53" height="649.662" filterUnits="userSpaceOnUse" color-interpolation-filters="sRGB">
<feFlood flood-opacity="0" result="BackgroundImageFix"/>
<feColorMatrix in="SourceAlpha" type="matrix" values="0 0 0 0 0 0 0 0 0 0 0 0 0 0 0 0 0 0 127 0" result="hardAlpha"/>
<feOffset/>
<feGaussianBlur stdDeviation="5"/>
<feComposite in2="hardAlpha" operator="out"/>
<feColorMatrix type="matrix" values="0 0 0 0 1 0 0 0 0 0.831373 0 0 0 0 0 0 0 0 1 0"/>
<feBlend mode="normal" in2="BackgroundImageFix" result="effect1_dropShadow_794_8553"/>
<feBlend mode="normal" in="SourceGraphic" in2="effect1_dropShadow_794_8553" result="shape"/>
</filter>
</defs>
</svg>
