<svg width="1089" height="302" viewBox="0 0 1089 302" fill="none" xmlns="http://www.w3.org/2000/svg">
<g filter="url(#filter0_d_764_8426)">
<path d="M144.225 216.35L79.6131 190.825L15 165.3V140.496L144.225 89.4473V113.385L24.519 159.532V146.265L144.225 192.411V216.35Z" fill="#FFD500"/>
<path d="M146.585 282.686L241.774 11H266.869L171.68 282.686H146.585Z" fill="#FFD500"/>
<path d="M278.428 253.844V97.5234H333.233V253.844H278.428Z" fill="#FFD500"/>
<path d="M575.381 94.9277C587.496 94.9277 598.265 97.4273 607.688 102.427C617.303 107.234 624.803 114.732 630.188 124.923C635.764 135.113 638.553 148.285 638.553 164.436V253.844H583.746V173.376C583.746 162.224 581.631 154.149 577.401 149.15C573.17 143.958 567.401 141.362 560.094 141.362C554.901 141.362 550.19 142.612 545.96 145.112C541.729 147.611 538.46 151.457 536.152 156.649C533.845 161.648 532.691 168.185 532.691 176.261V253.844H477.885V173.376C477.885 162.224 475.77 154.149 471.54 149.15C467.501 143.958 461.732 141.362 454.232 141.362C448.848 141.362 444.041 142.612 439.81 145.112C435.772 147.611 432.502 151.457 430.002 156.649C427.695 161.648 426.541 168.185 426.541 176.261V253.844H371.736V97.5233H423.945V141.074L413.561 128.672C419.33 117.52 427.215 109.156 437.214 103.58C447.214 97.812 458.367 94.9277 470.674 94.9277C484.712 94.9277 497.019 98.5812 507.596 105.887C518.365 113.001 525.576 124.154 529.23 139.343L511.346 135.594C516.922 122.904 525.287 113.001 536.441 105.887C547.786 98.5812 560.766 94.9277 575.381 94.9277Z" fill="#FFD500"/>
<path d="M676.024 253.844V97.5233H728.234V143.093L720.44 130.114C725.063 118.385 732.556 109.637 742.945 103.868C753.325 97.9079 765.925 94.9277 780.727 94.9277V144.246C778.232 143.862 776.021 143.67 774.093 143.67C772.366 143.477 770.439 143.381 768.328 143.381C757.171 143.381 748.135 146.457 741.209 152.61C734.292 158.571 730.829 168.377 730.829 182.029V253.844H676.024Z" fill="#FFD500"/>
<path d="M880.829 256.437C860.828 256.437 845.258 251.534 834.102 241.728C822.946 231.73 817.372 216.732 817.372 196.735V62.623H872.176V196.159C872.176 201.735 873.712 206.157 876.791 209.425C879.87 212.502 883.808 214.04 888.614 214.04C895.156 214.04 900.73 212.406 905.353 209.138L918.904 247.496C914.29 250.573 908.615 252.784 901.89 254.129C895.156 255.668 888.139 256.437 880.829 256.437ZM794.584 144.244V103.289H907.948V144.244H794.584Z" fill="#FFD500"/>
<path d="M944.649 216.35V192.411L1064.65 146.265V159.532L944.649 113.385V89.4473L1073.88 140.496V165.3L944.649 216.35Z" fill="#FFD500"/>
<path fill-rule="evenodd" clip-rule="evenodd" d="M304.931 11.158C302.893 11.2323 301.103 11.4267 299.126 11.7888C298.38 11.9248 298.337 11.9364 298.158 12.0499C298.012 12.1425 297.935 12.2318 297.826 12.4345C297.77 12.5396 297.765 12.6765 297.75 15.1852L297.734 17.8259L297.308 17.9468C294.867 18.6368 292.457 19.6246 290.387 20.7835C290.103 20.942 289.861 21.0722 289.85 21.0722C289.838 21.0722 289.01 20.2537 288.009 19.2542C286.044 17.2894 286.076 17.3169 285.704 17.2844C285.389 17.2568 285.262 17.3236 284.274 18.0294C282.546 19.2634 281.152 20.4439 279.538 22.0374C277.598 23.9497 276.229 25.5524 274.821 27.5581C274.342 28.2389 274.268 28.3882 274.267 28.6661C274.266 29.0841 274.188 28.9898 276.216 31.0238C277.223 32.0334 278.046 32.8693 278.046 32.8802C278.046 32.8919 277.909 33.148 277.74 33.4492C276.598 35.4941 275.607 37.9178 274.922 40.3406L274.801 40.7678L272.162 40.7836L269.523 40.7995L269.388 40.8712C269.211 40.9663 269.037 41.1441 268.966 41.3051C268.844 41.5812 268.504 43.6111 268.354 44.9602C268.041 47.781 268.041 50.4299 268.354 53.2499C268.511 54.6607 268.848 56.6531 268.975 56.9159C269.056 57.0861 269.212 57.2455 269.388 57.3397L269.523 57.4106L272.161 57.4265L274.801 57.4423L274.985 58.0856C275.651 60.4075 276.625 62.7611 277.759 64.7935C277.916 65.0771 278.046 65.3191 278.046 65.3308C278.046 65.3416 277.223 66.1776 276.216 67.1871C274.188 69.2212 274.266 69.1269 274.267 69.5449C274.268 69.8227 274.342 69.9721 274.821 70.6529C276.186 72.5993 277.399 74.0276 279.294 75.9224C281.152 77.7804 282.612 79.0185 284.53 80.3642C285.257 80.8748 285.341 80.9166 285.621 80.9182C286.058 80.9207 285.949 81.01 288.002 78.9618L289.845 77.123L289.947 77.1822C292.171 78.4662 294.678 79.5157 297.308 80.2633L297.734 80.3851L297.75 83.0249C297.768 85.9249 297.753 85.698 297.95 85.9783C298.027 86.0876 298.262 86.242 298.415 86.2828C298.574 86.3254 299.639 86.5181 300.234 86.6124C304.537 87.2924 309.092 87.2039 313.359 86.3571C313.934 86.2437 314.106 86.146 314.278 85.8348L314.371 85.6655L314.387 83.0257L314.403 80.3851L314.973 80.2224C317.347 79.5458 319.692 78.578 321.787 77.4108C322.055 77.2615 322.283 77.1388 322.292 77.1388C322.301 77.1388 323.127 77.9564 324.128 78.9568C326.094 80.9207 326.063 80.8949 326.434 80.9257C326.691 80.9466 326.846 80.8857 327.293 80.587C329.185 79.3205 331.059 77.7378 333.05 75.7255C334.213 74.5508 334.986 73.6914 335.879 72.5826C336.658 71.6156 337.726 70.1206 337.832 69.8461C337.912 69.6417 337.895 69.3363 337.794 69.1336C337.744 69.0334 337.187 68.4536 335.907 67.1713C334.909 66.1709 334.092 65.3441 334.092 65.3349C334.092 65.3258 334.214 65.098 334.364 64.8293C335.534 62.7285 336.482 60.4275 337.173 58.0122L337.337 57.4423L339.976 57.4265L342.615 57.4106L342.784 57.3172C343.107 57.1387 343.194 56.9751 343.326 56.3018C343.691 54.4421 343.991 51.7598 343.991 50.3582C343.991 50.1713 344.005 50.0178 344.023 50.007C344.043 49.9944 344.055 49.6474 344.055 49.07C344.055 48.466 344.044 48.1589 344.023 48.1723C344.003 48.1848 343.991 48.0713 343.991 47.8561C343.991 46.7823 343.784 44.6173 343.533 43.0772C343.239 41.2709 343.179 41.1015 342.745 40.8696L342.615 40.7995L339.976 40.7836L337.337 40.7678L337.173 40.1988C336.481 37.7801 335.535 35.4849 334.364 33.3816C334.214 33.113 334.092 32.8852 334.092 32.876C334.092 32.8668 334.909 32.04 335.907 31.0388C337.181 29.7632 337.744 29.1775 337.793 29.0782C337.887 28.8897 337.91 28.5901 337.845 28.3991C337.756 28.1371 336.772 26.7455 335.929 25.6917C334.486 23.8838 332.395 21.7196 330.596 20.1686C329.457 19.1874 328.324 18.3148 327.293 17.6239C326.846 17.3253 326.691 17.2635 326.434 17.2852C326.063 17.3161 326.094 17.2894 324.128 19.2542C323.127 20.2537 322.301 21.0722 322.292 21.0722C322.283 21.0722 322.055 20.9495 321.787 20.7993C319.686 19.6288 317.344 18.6635 314.941 17.9777L314.403 17.8242L314.387 15.1844L314.371 12.5446L314.278 12.3761C314.106 12.0649 313.934 11.9673 313.359 11.853C310.69 11.3224 307.546 11.0629 304.931 11.158ZM304.376 13.0377C302.937 13.1111 301.316 13.2897 299.997 13.52L299.601 13.5892L299.585 16.1998C299.568 19.0823 299.581 18.9054 299.363 19.1532C299.207 19.3309 299.04 19.4127 298.605 19.522C297.927 19.6922 296.846 20.0134 296.153 20.2503C294.199 20.9186 292.304 21.7922 290.523 22.8451C290.018 23.1438 289.83 23.2105 289.591 23.1755C289.261 23.1279 289.258 23.1262 287.354 21.2232C285.567 19.4361 285.544 19.4152 285.464 19.4578C285.344 19.522 284.127 20.4414 283.668 20.8135C281.608 22.488 279.475 24.6196 277.811 26.6671C277.427 27.1384 276.499 28.369 276.433 28.4934C276.39 28.5726 276.411 28.5951 278.197 30.3839C280.1 32.2886 280.102 32.2911 280.149 32.6207C280.183 32.8601 280.117 33.0479 279.819 33.5543C278.335 36.0673 277.207 38.8121 276.497 41.638C276.388 42.0726 276.306 42.2412 276.128 42.3972C275.88 42.6149 276.057 42.6016 273.177 42.6191L270.569 42.635L270.512 42.9512C270.004 45.7661 269.854 49.0041 270.093 51.9534C270.179 53.0113 270.37 54.5039 270.528 55.3541L270.57 55.576L273.178 55.5918C276.057 55.6094 275.88 55.596 276.128 55.8138C276.3 55.9648 276.387 56.1358 276.48 56.5096C277.195 59.3671 278.328 62.132 279.819 64.6566C280.117 65.1631 280.183 65.35 280.149 65.5902C280.102 65.9198 280.1 65.9223 278.197 67.827C276.411 69.615 276.39 69.6383 276.433 69.7176C276.499 69.8419 277.427 71.0717 277.811 71.5439C279.441 73.5487 281.55 75.6646 283.554 77.3031C284.06 77.717 285.331 78.6814 285.465 78.7532C285.544 78.7957 285.57 78.7724 287.354 76.9878C289.258 75.0847 289.261 75.083 289.591 75.0355C289.83 75.0005 290.018 75.0672 290.523 75.3659C293.028 76.8451 295.787 77.9798 298.606 78.6889C299.04 78.7982 299.208 78.88 299.363 79.0577C299.581 79.3055 299.568 79.1286 299.585 82.0112L299.601 84.6217L300.202 84.7244C301.489 84.943 303.065 85.1082 304.551 85.1782C305.91 85.2433 308.075 85.1857 309.485 85.0489C310.328 84.9663 311.993 84.7369 312.426 84.6434L312.537 84.6192L312.553 82.0104C312.57 79.1286 312.557 79.3055 312.775 79.0577C312.937 78.8725 313.099 78.7999 313.691 78.6464C316.537 77.908 319.076 76.8601 321.575 75.3926C322.133 75.0647 322.322 74.9954 322.558 75.033C322.876 75.0839 322.893 75.0989 324.777 76.9819C325.769 77.9731 326.596 78.7841 326.615 78.7841C326.658 78.7841 327.4 78.2451 327.987 77.7854C329.319 76.745 330.397 75.7722 331.831 74.3188C333.233 72.898 334.271 71.6899 335.34 70.2357L335.766 69.6558L333.949 67.8362C332.037 65.9215 332.037 65.9198 331.989 65.5902C331.953 65.3425 332.019 65.1647 332.365 64.5774C333.818 62.1145 334.933 59.3905 335.641 56.5722C335.752 56.1291 335.834 55.9648 336.024 55.8021C336.28 55.5835 336.161 55.5918 339.011 55.5918H341.579L341.693 54.8877C342.314 51.0515 342.314 47.1594 341.693 43.3233L341.579 42.6191H339.011C336.161 42.6191 336.28 42.6275 336.024 42.4089C335.834 42.2462 335.752 42.0818 335.641 41.638C334.933 38.8205 333.818 36.0965 332.365 33.6336C332.019 33.0462 331.953 32.8685 331.989 32.6207C332.037 32.2911 332.038 32.2895 333.949 30.3739L335.765 28.5551L335.43 28.0962C334.254 26.4818 333.193 25.2596 331.518 23.5859C329.864 21.9348 328.661 20.8928 327.07 19.7331L326.611 19.3985L324.777 21.2282C322.755 23.2439 322.838 23.1755 322.437 23.1755C322.212 23.1755 322.117 23.1396 321.747 22.9168C320.605 22.2268 318.946 21.3959 317.708 20.8919C316.422 20.368 314.833 19.8465 313.533 19.5212C313.099 19.4127 312.93 19.3309 312.775 19.1532C312.557 18.9054 312.57 19.0823 312.553 16.1998L312.537 13.59L312.243 13.535C311.051 13.3105 309.268 13.1153 307.685 13.0361C306.962 13.0002 305.1 13.001 304.376 13.0377ZM305.231 29.6656C303.974 29.7423 303.159 29.8433 302.171 30.0435C296.652 31.1657 291.833 34.6998 289.077 39.6448C287.733 42.0584 286.955 44.5956 286.692 47.4281C286.617 48.239 286.617 49.9719 286.692 50.782C286.875 52.7427 287.284 54.488 287.97 56.2242C290.599 62.8771 296.658 67.5659 303.728 68.4186C304.572 68.5203 305.067 68.5462 306.1 68.5454C308.025 68.542 309.602 68.3259 311.382 67.8212C317.839 65.989 322.956 60.8697 324.777 54.4213C325.289 52.6042 325.504 51.0231 325.501 49.0733C325.499 47.4506 325.356 46.1775 325.011 44.6915C323.566 38.4809 319.116 33.3315 313.175 30.9955C311.436 30.3113 309.668 29.8959 307.777 29.7257C307.252 29.6789 305.638 29.6405 305.231 29.6656ZM304.82 31.5469C301.659 31.8047 298.865 32.7634 296.312 34.4662C292.227 37.1894 289.43 41.5629 288.689 46.3835C288.529 47.4197 288.5 47.8428 288.5 49.1051C288.5 50.3682 288.529 50.7904 288.689 51.8274C289.733 58.6204 294.755 64.2453 301.41 66.0775C303.842 66.7474 306.508 66.8809 309.007 66.4588C314.571 65.5185 319.373 61.9276 321.867 56.8416C322.673 55.1997 323.228 53.4068 323.478 51.6522C323.686 50.1872 323.709 48.5244 323.542 47.0643C322.868 41.1582 319.168 35.9296 313.802 33.3015C311.91 32.3746 309.976 31.8214 307.824 31.5903C307.267 31.5311 305.355 31.5027 304.82 31.5469ZM268.129 49.1051C268.129 49.619 268.134 49.8284 268.139 49.5723C268.144 49.3153 268.144 48.8956 268.139 48.6387C268.134 48.3817 268.129 48.592 268.129 49.1051Z" fill="#FFD500"/>
<path fill-rule="evenodd" clip-rule="evenodd" d="M304.373 13.0378C302.934 13.1112 301.312 13.2898 299.993 13.5201L299.598 13.5893L299.582 16.1999C299.564 19.0824 299.578 18.9055 299.36 19.1533C299.204 19.331 299.036 19.4128 298.601 19.5221C297.924 19.6923 296.842 20.0135 296.15 20.2505C294.196 20.9187 292.301 21.7923 290.52 22.8452C290.014 23.1439 289.827 23.2106 289.587 23.1756C289.258 23.128 289.255 23.1263 287.351 21.2233C285.564 19.4362 285.541 19.4153 285.461 19.4579C285.341 19.5221 284.123 20.4415 283.664 20.8136C281.604 22.4881 279.471 24.6198 277.808 26.6672C277.424 27.1385 276.495 28.3692 276.429 28.4935C276.387 28.5727 276.408 28.5952 278.193 30.384C280.096 32.2887 280.098 32.2912 280.146 32.6208C280.18 32.8602 280.114 33.048 279.815 33.5544C278.332 36.0674 277.204 38.8122 276.493 41.6381C276.384 42.0727 276.302 42.2413 276.125 42.3973C275.877 42.615 276.054 42.6017 273.173 42.6192L270.566 42.6351L270.509 42.9513C270.001 45.7662 269.851 49.0042 270.089 51.9535C270.175 53.0114 270.366 54.504 270.525 55.3542L270.567 55.5761L273.174 55.5919C276.054 55.6095 275.877 55.5961 276.125 55.8139C276.297 55.9649 276.383 56.1359 276.477 56.5097C277.192 59.3672 278.325 62.1321 279.815 64.6567C280.114 65.1632 280.18 65.3501 280.146 65.5904C280.098 65.9199 280.096 65.9224 278.193 67.8271C276.408 69.6151 276.387 69.6384 276.429 69.7177C276.495 69.842 277.424 71.0718 277.808 71.544C279.437 73.5489 281.547 75.6647 283.55 77.3032C284.057 77.7171 285.327 78.6815 285.462 78.7533C285.54 78.7958 285.566 78.7725 287.351 76.9879C289.255 75.0848 289.258 75.0831 289.587 75.0356C289.827 75.0006 290.014 75.0673 290.52 75.366C293.025 76.8452 295.784 77.9799 298.602 78.689C299.036 78.7983 299.205 78.8801 299.36 79.0578C299.578 79.3056 299.564 79.1287 299.582 82.0113L299.598 84.6218L300.198 84.7245C301.485 84.9431 303.061 85.1083 304.547 85.1783C305.907 85.2434 308.072 85.1859 309.481 85.049C310.324 84.9664 311.99 84.737 312.423 84.6435L312.534 84.6193L312.549 82.0105C312.567 79.1287 312.554 79.3056 312.771 79.0578C312.933 78.8726 313.095 78.8 313.688 78.6465C316.534 77.9081 319.073 76.8602 321.571 75.3927C322.129 75.0648 322.319 74.9956 322.554 75.0331C322.873 75.084 322.89 75.099 324.774 76.9821C325.766 77.9732 326.593 78.7842 326.611 78.7842C326.654 78.7842 327.396 78.2452 327.984 77.7855C329.315 76.7451 330.393 75.7723 331.828 74.3189C333.23 72.8981 334.268 71.69 335.337 70.2358L335.762 69.6559L333.946 67.8363C332.034 65.9216 332.033 65.9199 331.986 65.5904C331.95 65.3426 332.016 65.1648 332.362 64.5775C333.815 62.1146 334.929 59.3906 335.638 56.5723C335.749 56.1292 335.831 55.9649 336.021 55.8022C336.276 55.5836 336.158 55.5919 339.008 55.5919H341.575L341.69 54.8878C342.311 51.0516 342.311 47.1595 341.69 43.3234L341.575 42.6192H339.008C336.158 42.6192 336.276 42.6276 336.021 42.409C335.831 42.2463 335.749 42.0819 335.638 41.6381C334.929 38.8206 333.815 36.0966 332.362 33.6337C332.016 33.0463 331.95 32.8686 331.986 32.6208C332.033 32.2912 332.035 32.2896 333.946 30.374L335.761 28.5552L335.427 28.0963C334.25 26.4819 333.19 25.2597 331.514 23.586C329.86 21.9349 328.658 20.8929 327.067 19.7332L326.608 19.3986L324.774 21.2283C322.752 23.244 322.834 23.1756 322.433 23.1756C322.209 23.1756 322.114 23.1397 321.744 22.9169C320.602 22.2269 318.943 21.396 317.704 20.892C316.419 20.3681 314.829 19.8466 313.53 19.5213C313.095 19.4128 312.927 19.331 312.771 19.1533C312.554 18.9055 312.567 19.0824 312.549 16.1999L312.534 13.5901L312.24 13.5351C311.048 13.3106 309.264 13.1154 307.681 13.0362C306.959 13.0003 305.096 13.0011 304.373 13.0378ZM302.168 30.0436C303.156 29.8434 303.971 29.7424 305.227 29.6657C305.635 29.6406 307.248 29.679 307.773 29.7258C309.665 29.896 311.432 30.3114 313.172 30.9956C319.113 33.3316 323.563 38.481 325.007 44.6917C325.353 46.1776 325.495 47.4507 325.498 49.0734C325.5 51.0232 325.286 52.6043 324.774 54.4214C322.953 60.8698 317.836 65.9891 311.379 67.8213C309.599 68.326 308.021 68.5421 306.097 68.5455C305.063 68.5463 304.568 68.5204 303.725 68.4187C296.655 67.566 290.596 62.8772 287.967 56.2243C287.281 54.4881 286.871 52.7428 286.688 50.7821C286.613 49.972 286.613 48.2391 286.688 47.4282C286.952 44.5957 287.73 42.0585 289.074 39.6449C291.829 34.6999 296.649 31.1658 302.168 30.0436Z" fill="#FFD500"/>
</g>
<defs>
<filter id="filter0_d_764_8426" x="0" y="0" width="1088.88" height="301.686" filterUnits="userSpaceOnUse" color-interpolation-filters="sRGB">
<feFlood flood-opacity="0" result="BackgroundImageFix"/>
<feColorMatrix in="SourceAlpha" type="matrix" values="0 0 0 0 0 0 0 0 0 0 0 0 0 0 0 0 0 0 127 0" result="hardAlpha"/>
<feOffset dy="4"/>
<feGaussianBlur stdDeviation="7.5"/>
<feComposite in2="hardAlpha" operator="out"/>
<feColorMatrix type="matrix" values="0 0 0 0 1 0 0 0 0 0.831373 0 0 0 0 0 0 0 0 0.66 0"/>
<feBlend mode="normal" in2="BackgroundImageFix" result="effect1_dropShadow_764_8426"/>
<feBlend mode="normal" in="SourceGraphic" in2="effect1_dropShadow_764_8426" result="shape"/>
</filter>
</defs>
</svg>
