<svg width="530" height="438" viewBox="0 0 530 438" fill="none" xmlns="http://www.w3.org/2000/svg">
<g filter="url(#filter0_d_809_124)">
<path d="M380.093 224.01C381.171 224.008 382.25 224.005 383.361 224.002C384.549 224.004 385.737 224.006 386.961 224.008C388.832 224.005 388.832 224.005 390.74 224.003C394.166 223.999 397.591 224 401.017 224.003C404.596 224.006 408.175 224.003 411.754 224.002C417.764 224 423.774 224.002 429.783 224.007C436.741 224.013 443.698 224.011 450.655 224.005C456.621 224.001 462.586 224 468.551 224.003C472.117 224.004 475.684 224.004 479.25 224.001C483.223 223.998 487.196 224.002 491.168 224.008C492.358 224.006 493.549 224.004 494.775 224.002C495.85 224.005 496.926 224.008 498.034 224.01C498.974 224.011 499.915 224.011 500.884 224.012C503 224.137 503 224.137 504 225.137C504.073 227.668 504.092 230.17 504.062 232.7C504.058 233.411 504.053 234.122 504.049 234.854C504.037 236.615 504.019 238.376 504 240.137C481.984 241.291 460.046 241.212 438 241.137C438 259.287 438 277.437 438 296.137C450.79 296.098 450.79 296.098 463.58 296.047C465.177 296.044 466.774 296.042 468.371 296.04C469.208 296.035 470.045 296.03 470.907 296.024C472.939 296.024 474.97 296.075 477 296.137C478.814 297.952 478.128 300.762 478.129 303.202C478.133 304.5 478.136 305.798 478.139 307.135C478.137 308.563 478.135 309.991 478.133 311.419C478.133 312.872 478.134 314.326 478.136 315.779C478.137 318.829 478.135 321.879 478.13 324.929C478.125 328.847 478.128 332.764 478.134 336.682C478.138 339.685 478.136 342.687 478.134 345.69C478.133 347.135 478.134 348.58 478.136 350.025C478.139 352.041 478.134 354.057 478.129 356.073C478.128 357.797 478.128 357.797 478.127 359.556C478 362.137 478 362.137 477 363.137C475.353 363.255 473.702 363.305 472.051 363.327C470.99 363.344 469.93 363.36 468.837 363.378C467.674 363.391 466.511 363.405 465.312 363.419C464.108 363.437 462.904 363.456 461.663 363.474C457.775 363.533 453.888 363.586 450 363.637C431.652 363.889 413.331 364.292 395 365.137C395.787 367.29 395.787 367.29 397.748 367.753C400.216 368.174 402.532 368.277 405.037 368.296C406.052 368.305 407.067 368.315 408.113 368.325C409.775 368.334 409.775 368.334 411.47 368.343C412.641 368.353 413.812 368.363 415.018 368.373C418.892 368.404 422.766 368.429 426.641 368.454C429.325 368.474 432.01 368.495 434.695 368.517C441.041 368.567 447.388 368.612 453.734 368.655C460.96 368.704 468.186 368.759 475.412 368.815C490.275 368.928 505.137 369.035 520 369.137C520 373.757 520 378.377 520 383.137C505.81 383.467 491.62 383.797 477 384.137C477.99 386.777 478.98 389.417 480 392.137C480.301 394.911 480.481 397.38 480.438 400.137C480.428 400.838 480.418 401.539 480.408 402.26C480.121 410.597 477.715 414.714 471.875 420.45C465.876 425.464 458.902 427.821 451.059 427.411C442.044 426.213 436.113 422.922 430 416.137C426.128 410.088 425.265 403.235 426 396.137C426.984 392.019 428.102 387.934 430 384.137C419.77 383.807 409.54 383.477 399 383.137C399 385.447 399 387.757 399 390.137C398.536 392.863 397.718 395.443 396.875 398.075C396.651 398.779 396.426 399.484 396.195 400.209C394.346 405.695 392.023 409.926 388 414.137C387.465 414.748 386.93 415.359 386.379 415.989C380.755 422.093 373.756 426.758 365.318 427.314C362.003 427.381 358.69 427.422 355.375 427.45C354.237 427.479 353.099 427.508 351.926 427.538C340.2 427.625 332.687 424.61 324.258 416.485C314.887 406.741 311.708 396.582 311 383.137C306.05 383.137 301.1 383.137 296 383.137C295.907 385.736 295.907 385.736 295.812 388.387C294.74 401.017 288.732 410.738 279.812 419.387C268.55 428.782 255.03 428.36 241 427.137C230.932 425.3 223.16 419.429 217.188 411.262C211.068 401.934 208.835 394.201 209 383.137C203.39 383.137 197.78 383.137 192 383.137C192 385.777 192 388.417 192 391.137C190.117 402.392 184.717 413.28 175.348 420.055C166.258 425.973 160.101 427.5 149.313 427.512C148.179 427.537 147.045 427.561 145.877 427.587C133.841 427.628 124.99 423.863 116.348 415.548C108.299 406.844 104 394.946 104 383.137C94.76 383.467 85.52 383.797 76 384.137C77.32 387.767 78.64 391.397 80 395.137C80.7966 404 79.9368 411.423 74.082 418.434C67.7722 424.554 61.165 427.118 52.4375 427.512C43.3945 427.114 37.1654 423.652 31 417.137C25.9716 410.918 24.3044 404.067 25 396.137C26.2147 391.529 27.8677 387.402 30 383.137C23.4 383.137 16.8 383.137 10 383.137C10 379.177 10 375.217 10 371.137C17.26 371.137 24.52 371.137 32 371.137C31.9884 368.729 31.9768 366.322 31.9648 363.841C31.957 361.504 31.951 359.167 31.9451 356.831C31.94 355.209 31.9333 353.587 31.9246 351.966C31.9124 349.632 31.9068 347.299 31.9023 344.966C31.8972 344.243 31.892 343.519 31.8867 342.774C31.8863 339.383 32.0951 336.399 33 333.137C68.0823 333.009 103.165 332.881 138.247 332.755C142.424 332.74 146.602 332.725 150.78 332.71C151.611 332.707 152.442 332.704 153.299 332.701C166.617 332.653 179.935 332.605 193.253 332.556C207.002 332.505 220.751 332.455 234.501 332.406C242.188 332.379 249.876 332.351 257.563 332.323C296.042 332.179 334.52 332.116 373 332.137C373 296.827 373 261.517 373 225.137C375.527 223.874 377.264 224.012 380.093 224.01Z" fill="#FFD400"/>
<path d="M89 166.361C103.371 166.253 117.666 166.243 132 167.361C132.367 170.172 132.719 172.984 133.062 175.798C133.166 176.582 133.27 177.365 133.377 178.171C134.757 189.737 131.729 198.747 127.795 209.566C125.736 215.438 124.529 220.132 125 226.361C133.619 231.048 145.04 229.52 154.625 229.486C155.406 229.484 156.188 229.482 156.992 229.48C167.82 229.45 178.649 229.364 189.473 229.096C191.466 229.049 193.459 229.015 195.452 228.981C197.255 228.927 197.255 228.927 199.094 228.873C200.142 228.846 201.191 228.82 202.271 228.793C205.54 228.275 206.75 227.797 209 225.361C209.99 222.721 210.98 220.081 212 217.361C254.24 217.361 296.48 217.361 340 217.361C341.98 221.321 341.98 221.321 344 225.361C348.93 229.55 348.93 229.55 361 230.361C361 260.061 361 289.761 361 320.361C322.366 321.289 283.742 322.064 245.1 322.506C240.524 322.558 235.949 322.613 231.374 322.668C230.007 322.685 230.007 322.685 228.614 322.701C213.921 322.884 199.235 323.214 184.546 323.601C169.44 323.996 154.338 324.228 139.228 324.313C130.75 324.365 122.288 324.49 113.816 324.802C60.9219 326.694 60.9219 326.694 48.3007 316.151C38.361 306.334 29.2339 292.122 26 278.361C26.2344 274.003 26.8223 270.932 29.269 267.325C29.7398 266.618 30.2105 265.91 30.6955 265.182C31.2059 264.443 31.7163 263.704 32.2422 262.943C32.7664 262.163 33.2905 261.384 33.8306 260.58C35.5003 258.103 37.1874 255.638 38.875 253.173C40.0024 251.506 41.1288 249.837 42.2539 248.168C45.1483 243.884 48.0536 239.609 51 235.361C51.5467 234.556 52.0934 233.751 52.6567 232.922C54 231.361 54 231.361 57 230.361C59.6101 230.267 62.1984 230.224 64.8086 230.22C66.3757 230.202 67.9427 230.182 69.5098 230.162C71.9766 230.133 74.4424 230.111 76.9094 230.11C79.2933 230.107 81.6751 230.073 84.0586 230.033C85.1619 230.043 85.1619 230.043 86.2875 230.054C90.0761 229.964 91.6944 229.648 94.4983 227.016C96.6152 223.273 96.0467 221.514 95 217.361C94.2007 214.786 93.3516 212.234 92.4727 209.684C87.7103 195.86 84.2014 180.757 89 166.361Z" fill="#FFD400"/>
<path d="M194.875 10.0488C195.995 10.0327 197.115 10.0166 198.27 10C209.473 9.99348 217.347 12.2116 226.25 18.9863C227.724 20.0611 229.199 21.134 230.676 22.2051C231.401 22.7362 232.126 23.2673 232.874 23.8145C244.814 32.7289 244.814 32.7289 259 36.3613C259.746 36.4168 260.493 36.4722 261.262 36.5293C271.497 36.9044 280.331 33.648 289.668 29.8377C299.896 25.6808 308.7 25.0532 319.043 29.4136C324.142 31.8834 328.936 34.9862 333.706 38.0322C341.006 42.6337 349.104 46.9574 358 45.3613C363.739 43.6105 369.34 41.5001 374.855 39.1387C384.019 35.3623 393.317 34.8562 402.812 37.9238C408.278 40.2032 412.611 43.4294 417 47.3613C417.639 47.9195 418.279 48.4777 418.938 49.0527C426.076 55.6837 430.269 63.5993 431 73.3613C431.116 87.2339 428.872 101.188 420 112.361C410.046 121.964 398.63 125.942 384.895 125.74C378.713 125.139 373.627 122.867 368 120.361C352.757 113.989 344.668 112.952 329 119.361C327.356 120.187 327.356 120.187 325.68 121.029C317.304 125.045 309.991 125.936 300.688 125.986C299.59 125.997 298.493 126.008 297.362 126.019C285.958 125.821 278.165 121.988 269.188 115.236C261.869 109.802 256.405 106.18 247 107.361C241.584 108.828 237.033 111.954 232.373 114.968C217.219 124.76 201.239 130.096 183.074 126.607C178.15 125.303 173.327 123.83 168.523 122.135C160.196 119.268 154.672 118.652 146.629 122.494C133.55 130.213 127.97 146.465 124 160.361C115.42 160.361 106.84 160.361 98 160.361C99.4021 129.865 112.088 104.433 133 82.3613C133.666 81.7954 134.332 81.2294 135.019 80.6463C137.555 77.7213 137.985 75.4299 138.746 71.6465C138.884 70.9949 139.022 70.3433 139.164 69.672C139.603 67.5919 140.022 65.5087 140.438 63.4238C143.936 46.0567 148.356 27.897 164 17.3613C174.297 11.4374 183.121 10.0153 194.875 10.0488Z" fill="#FFD400"/>
</g>
<defs>
<filter id="filter0_d_809_124" x="0" y="0" width="530" height="437.779" filterUnits="userSpaceOnUse" color-interpolation-filters="sRGB">
<feFlood flood-opacity="0" result="BackgroundImageFix"/>
<feColorMatrix in="SourceAlpha" type="matrix" values="0 0 0 0 0 0 0 0 0 0 0 0 0 0 0 0 0 0 127 0" result="hardAlpha"/>
<feOffset/>
<feGaussianBlur stdDeviation="5"/>
<feComposite in2="hardAlpha" operator="out"/>
<feColorMatrix type="matrix" values="0 0 0 0 1 0 0 0 0 0.831373 0 0 0 0 0 0 0 0 1 0"/>
<feBlend mode="normal" in2="BackgroundImageFix" result="effect1_dropShadow_809_124"/>
<feBlend mode="normal" in="SourceGraphic" in2="effect1_dropShadow_809_124" result="shape"/>
</filter>
</defs>
</svg>
