<svg width="686" height="548" viewBox="0 0 686 548" fill="none" xmlns="http://www.w3.org/2000/svg">
<g filter="url(#filter0_d_794_8658)">
<path d="M361.89 537.741C361.77 534.001 361.62 530.271 361.53 526.531C361.34 518.881 361.49 511.201 360.92 503.581C360.28 495.011 360.78 486.441 360.36 477.891C360.26 475.901 359.94 473.921 359.77 471.941C359.47 468.301 359.15 464.661 358.95 461.011C358.57 453.831 359.53 446.741 360.34 439.631C361.11 432.831 362.54 426.161 364.44 419.621C367.13 410.341 370.58 401.351 374.92 392.691C380.72 381.101 387.67 370.261 396.13 360.481C400.85 355.021 406.22 350.111 411.3 344.961C415.57 340.631 420.21 336.751 425.17 333.231C431.5 328.761 438.05 324.671 445.08 321.411C450.13 319.071 455.21 316.771 460.45 314.911C465.53 313.101 470.77 311.701 476.02 310.451C480.94 309.281 485.96 308.451 490.96 307.641C493.66 307.201 496.42 306.961 499.15 306.911C504.64 306.801 510.14 306.821 515.64 306.901C517.55 306.931 519.23 306.631 520.76 305.411C524.41 302.531 528.22 299.831 531.76 296.831C542.51 287.741 550.92 276.591 559.25 265.361C563.56 259.551 567.95 253.811 572.42 248.131C577.82 241.261 583.52 234.641 589.97 228.751C595.24 223.931 600.78 219.391 607.28 216.211C613.01 213.411 618.97 211.891 625.38 212.661C630.03 213.221 634.18 215.051 637.81 217.991C639.41 219.281 639.43 219.561 638.41 221.341C635.39 226.601 632.31 231.831 629.27 237.081C625.57 243.491 621.89 249.911 618.19 256.321C615.49 261.001 612.76 265.661 610.04 270.321C608.07 273.691 606.09 277.061 604.11 280.431C603.53 281.421 603.08 282.481 604.12 283.361C605.34 284.401 605.56 285.671 605.57 287.161C605.57 287.691 606.11 288.231 606.4 288.761C606.93 288.451 607.66 288.271 607.97 287.811C611.8 282.081 615.57 276.311 619.34 270.541C624.61 262.471 629.87 254.381 635.14 246.311C638.23 241.571 641.3 236.831 644.42 232.121C645.55 230.411 646.19 228.551 646.46 226.551C647.36 219.851 646.36 213.781 640.85 209.121C638.5 207.141 635.75 206.031 632.9 205.101C632.11 204.851 631.31 204.641 630.25 204.341C630.25 202.831 630.16 201.351 630.27 199.881C630.73 193.491 631.23 187.111 631.76 180.731C632.23 175.181 632.75 169.641 633.27 164.101C633.8 158.471 634.26 152.831 634.92 147.211C635.58 141.511 636.31 135.821 637.26 130.161C638.45 123.031 639.8 115.931 641.28 108.861C641.94 105.701 642.99 102.611 644.04 99.5411C645.56 95.1311 648.57 91.8611 652.38 89.2811C656.64 86.4011 662.45 86.4911 666.21 89.3911C667.2 90.1511 667.74 90.9811 667.8 92.2911C668.11 98.6811 668.49 105.071 668.87 111.461C669.34 119.351 669.83 127.241 670.29 135.131C670.57 139.941 670.82 144.751 671.1 149.561C671.54 157.201 671.99 164.841 672.42 172.471C672.67 176.781 672.87 181.101 673.15 185.411C673.61 192.711 674.17 200.001 674.58 207.311C674.87 212.291 674.97 217.281 675.19 222.261C675.29 224.561 673.91 226.361 673.12 228.331C670.22 235.591 667.19 242.801 664.17 250.011C659.26 261.751 654.3 273.471 649.39 285.211C645.31 294.951 641.28 304.721 637.21 314.461C633.43 323.511 629.62 332.541 625.82 341.581C623.4 347.331 620.91 353.041 618.56 358.821C617.33 361.841 614.76 363.631 612.49 365.641C609.39 368.391 606.04 370.861 602.77 373.421C592.82 381.211 582.89 389.021 572.88 396.731C568.01 400.481 563.05 404.141 557.97 407.601C550.14 412.931 542.26 418.191 534.23 423.211C528.11 427.041 521.71 430.401 515.48 434.041C503.82 440.871 493.58 449.351 485.24 460.051C481.99 464.221 479.37 468.721 477.27 473.541C476.26 475.851 475.76 478.251 475.77 480.811C475.82 499.791 475.81 518.781 475.82 537.761C437.85 537.741 399.87 537.741 361.89 537.741Z" fill="#FFD400"/>
<path d="M209.49 537.741C209.5 518.431 209.48 499.111 209.53 479.801C209.54 476.941 208.49 474.411 207.37 471.931C205.07 466.831 202.03 462.151 198.42 457.871C190.92 448.971 182.22 441.451 172.19 435.531C165.9 431.821 159.41 428.431 153.22 424.581C145.4 419.711 137.67 414.671 130.1 409.411C121.64 403.531 113.3 397.461 105.12 391.201C96.0801 384.281 87.2901 377.051 78.4001 369.941C75.8102 367.861 73.2701 365.721 70.6801 363.641C68.7601 362.101 67.2901 360.271 66.3401 357.971C62.8201 349.441 59.2401 340.921 55.6901 332.411C51.7501 322.971 47.8101 313.541 43.8701 304.101C39.8701 294.511 35.8801 284.911 31.8701 275.331C28.0801 266.281 24.2501 257.251 20.4501 248.201C17.1701 240.381 13.8701 232.581 10.6601 224.731C9.55014 222.021 10.1701 219.151 10.3101 216.341C10.3601 215.431 10.5501 214.531 10.6001 213.621C11.1201 205.581 11.6201 197.541 12.1301 189.501C12.1501 189.251 12.1601 189.001 12.1801 188.751C12.5301 181.611 12.8601 174.471 13.2201 167.331C13.7401 157.121 14.1001 146.891 14.8801 136.691C15.6601 126.501 16.1001 116.301 16.5501 106.091C16.7601 101.441 17.2401 96.8111 17.5501 92.1611C17.6201 91.0911 17.9801 90.3211 18.8501 89.6211C22.5301 86.6511 28.1001 86.2711 32.4401 88.9711C36.4801 91.4911 39.5701 94.8611 41.2601 99.4411C43.5701 105.711 45.0501 112.181 46.1701 118.741C46.9801 123.491 47.9301 128.231 48.6101 133.001C49.4901 139.261 50.2201 145.541 50.9101 151.821C51.6601 158.601 52.3301 165.381 52.9401 172.171C53.4201 177.471 53.7301 182.781 54.1301 188.091C54.4001 191.661 54.7301 195.221 54.9401 198.791C55.0501 200.601 54.9601 202.421 54.9601 204.261C52.9401 204.991 50.9901 205.671 49.0601 206.401C43.5801 208.491 38.3301 214.531 38.6701 221.711C38.7301 223.041 38.6901 224.371 38.7701 225.701C38.9401 228.611 40.2101 231.081 41.7901 233.491C49.3301 244.951 56.7801 256.471 64.2801 267.951C70.6901 277.761 77.0301 287.621 83.6401 297.301C85.2401 299.641 87.6501 301.491 89.9001 303.301C95.5201 307.831 101.27 312.221 106.97 316.661C107.3 316.911 107.6 317.211 107.96 317.401C108.72 317.821 109.55 318.121 110.2 317.261C110.79 316.481 110.61 315.691 109.98 314.991C107.64 312.401 105.3 309.801 102.94 307.231C98.4501 302.331 94.0501 297.341 89.4201 292.581C85.5901 288.641 83.1601 283.831 80.4501 279.191C74.7501 269.421 69.0801 259.641 63.4001 249.861C59.1001 242.451 54.8201 235.041 50.5301 227.631C49.4501 225.761 48.3201 223.911 47.2701 222.021C45.9101 219.561 46.0301 219.071 48.2101 217.471C52.7801 214.111 57.8801 212.421 63.5701 212.481C68.8501 212.541 73.7101 214.021 78.3501 216.461C87.9101 221.481 95.6701 228.641 102.93 236.511C112.2 246.561 120.27 257.521 128.4 268.461C134.9 277.211 141.62 285.761 149.56 293.261C154.45 297.891 159.55 302.271 165.28 305.871C166.39 306.571 167.49 306.911 168.79 306.901C172.95 306.861 177.12 306.991 181.28 306.861C187.81 306.651 194.22 307.541 200.63 308.631C208.35 309.941 215.96 311.751 223.32 314.391C229.41 316.581 235.4 319.101 241.24 321.881C249.9 326.001 257.97 331.151 265.41 337.191C270.3 341.161 275.14 345.271 279.58 349.731C288.04 358.231 295.55 367.551 301.97 377.711C309.51 389.651 315.54 402.281 319.74 415.791C322.3 424.001 324.07 432.351 325.25 440.851C326.39 449.111 326.65 457.421 326.33 465.751C326.23 468.401 325.61 471.021 325.42 473.671C325.11 478.151 324.85 482.631 324.76 487.121C324.52 498.431 324.4 509.751 324.2 521.061C324.12 525.721 323.92 530.371 323.8 535.031C323.78 535.941 323.89 536.851 323.94 537.761C285.77 537.741 247.63 537.741 209.49 537.741Z" fill="#FFD400"/>
<path d="M180.37 282.041C180.37 280.941 180.28 279.951 180.38 278.991C181.09 272.381 181.75 265.761 182.59 259.171C183.6 251.331 185.23 243.601 187.17 235.931C189.43 226.961 192.3 218.191 195.8 209.631C199.48 200.611 203.81 191.901 208.95 183.611C213.77 175.831 218.96 168.291 225.23 161.581C229.37 157.151 233.44 152.641 237.9 148.551C246.07 141.071 254.91 134.461 264.81 129.381C266.07 128.741 267.3 128.051 268.58 127.441C270.85 126.361 271.07 126.411 272.53 128.271C275.35 131.871 278.13 135.501 280.95 139.091C281.79 140.171 282.71 141.191 283.79 142.461C284.88 141.031 285.8 139.881 286.65 138.691C289.05 135.301 291.42 131.881 293.82 128.481C295.24 126.461 295.4 126.461 297.7 127.271C303.78 129.431 309.25 132.721 314.64 136.191C321.44 140.571 327.72 145.621 333.62 151.111C338.66 155.801 343.41 160.791 348.29 165.651C349.99 167.351 350.03 167.391 351.8 165.811C355.21 162.761 358.44 159.501 361.97 156.611C367.91 151.761 374.51 147.861 381.17 144.101C383.77 142.631 386.49 141.371 389.12 139.941C390.61 139.121 391.78 139.371 392.88 140.591C395.67 143.681 398.48 146.741 401.28 149.811C401.89 150.481 402.46 151.211 403.11 151.851C404.16 152.881 404.52 152.891 405.56 151.791C408.82 148.351 412.08 144.921 415.25 141.401C417.38 139.051 417.63 138.891 420.56 140.111C431.08 144.481 440.65 150.391 449.39 157.711C461.26 167.651 470.67 179.591 478.47 192.881C486.3 206.221 492.16 220.401 496.57 235.201C499.21 244.051 501.58 252.981 503.09 262.101C504.04 267.841 504.73 273.621 505.54 279.381C505.75 280.861 506.05 282.341 506.1 283.821C506.17 285.581 505.69 286.091 504.02 286.291C499.32 286.871 494.61 287.411 489.91 287.961C484.05 288.651 478.19 289.341 472.33 290.031C471.92 290.081 471.5 290.131 471.09 290.151C468.65 290.291 468.25 289.841 467.92 287.451C467.08 281.531 466.26 275.621 464.61 269.841C464.03 267.791 464.08 265.561 463.82 263.421C463.73 262.681 463.62 261.931 463.48 261.201C463.31 260.311 463.23 259.241 461.93 259.371C460.73 259.501 460.93 260.521 460.91 261.321C460.87 263.071 460.9 264.821 460.9 266.561C460.9 267.141 460.9 267.731 460.9 268.311C460.88 271.391 460.88 271.391 457.91 271.441C457.41 271.451 456.91 271.451 456.41 271.471C455.51 271.511 455.04 271.981 455.02 272.881C455.01 273.381 454.97 273.881 455.01 274.381C455.35 278.271 455.76 282.151 456.05 286.041C456.2 287.941 456.23 289.871 456.15 291.771C456.13 292.291 455.61 293.001 455.13 293.231C454.25 293.661 453.23 293.811 452.27 294.051C443.45 296.281 435.49 300.361 427.97 305.361C420.83 310.101 414.05 315.321 407.62 320.981C405.44 322.901 403.3 324.861 401.13 326.791C400.71 327.171 400.23 327.481 399.54 328.011C398.95 327.081 398.38 326.311 397.92 325.471C393.09 316.501 387.6 307.981 380.38 300.741C374.24 294.591 367.49 289.201 359.25 286.041C357.24 285.271 355.14 284.701 353.09 284.031C351.95 283.661 351.03 283.891 350.14 284.751C348.22 286.591 346.21 288.341 344.25 290.131C342.34 291.871 341.93 291.891 340.13 290.131C338.82 288.851 337.45 287.611 336.28 286.221C335.03 284.721 333.64 284.551 331.83 284.981C327.8 285.931 324.27 287.921 320.68 289.851C314.19 293.351 309.44 298.871 304.23 303.871C298.09 309.761 293.63 316.841 289.44 324.141C289.07 324.791 288.73 325.461 288.31 326.081C287.35 327.491 286.64 327.511 285.63 326.191C283.66 323.621 281.74 321.031 279.72 318.501C276 313.851 271.36 310.181 266.48 306.861C258.03 301.111 248.77 297.031 238.96 294.181C236.2 293.381 236.14 293.271 236.14 290.351C236.13 270.951 236.14 251.561 236.13 232.161C236.13 231.171 236.24 230.101 235.91 229.201C235.63 228.441 234.91 227.571 234.19 227.331C233.74 227.181 232.64 227.971 232.34 228.581C231.17 230.961 230.02 233.381 229.19 235.891C226.66 243.561 224.71 251.381 223.25 259.331C222 266.111 220.66 272.881 219.35 279.651C218.86 282.191 218.68 282.411 216.11 282.421C206.28 282.471 196.46 282.501 186.63 282.471C184.62 282.501 182.64 282.221 180.37 282.041ZM379.26 238.721C378.97 236.481 378.84 233.801 378.26 231.221C376.13 221.681 371.64 213.531 363.67 207.561C356.21 201.971 347.91 199.481 338.59 200.881C327.51 202.551 319.23 208.501 313.42 217.881C308.59 225.671 306.75 234.191 307.7 243.411C308.28 249.081 309.95 254.241 312.68 259.201C316.89 266.861 322.95 272.391 331.06 275.641C340.63 279.481 350.09 278.881 359 273.921C372.52 266.391 378.4 254.191 379.26 238.721Z" fill="#FFD400"/>
<path d="M282.63 10.0811C289.08 10.1811 294.62 10.5211 299.92 12.6111C306.58 15.2311 312.52 18.8711 317.65 23.9211C324.02 30.1911 328.45 37.6111 331.22 46.0211C334.22 55.1211 334.61 64.4711 333.09 73.8911C331.49 83.7911 327.44 92.6011 321.05 100.351C317.14 105.091 312.49 108.801 307.18 111.911C301.74 115.091 295.92 117.071 289.82 117.761C282.54 118.581 275.31 118.071 268.2 115.491C257.26 111.521 248.89 104.531 242.6 94.9811C237.29 86.9211 234.36 77.9711 233.88 68.2711C233.52 60.9911 233.96 53.8011 236.15 46.7911C238.96 37.8211 243.57 29.9111 250.38 23.3911C254.67 19.2811 259.51 15.8911 265.01 13.6011C270.9 11.1611 277.02 9.62111 282.63 10.0811Z" fill="#FFD400"/>
<path d="M451.97 78.9911C452.21 90.7911 448.61 101.181 441.91 110.461C436.7 117.681 429.87 122.931 421.5 126.231C413.52 129.381 405.36 130.101 397.01 128.551C387.84 126.851 380.04 122.521 373.43 115.901C366.97 109.431 362.65 101.761 360.27 93.0311C358.51 86.5811 357.98 79.9911 358.71 73.2611C359.52 65.8611 361.66 58.9511 365.2 52.4511C368.72 45.9911 373.57 40.7111 379.54 36.4311C383.78 33.3911 388.42 31.1911 393.41 29.7611C398.49 28.3011 403.72 27.8911 408.98 28.3511C416.76 29.0311 423.9 31.5411 430.37 35.9611C438.35 41.4211 444.05 48.7311 447.84 57.5611C450.81 64.4811 452.18 71.7111 451.97 78.9911Z" fill="#FFD400"/>
<path d="M366.21 317.532C365.62 317.932 365.27 318.332 364.9 318.362C364.63 318.382 364.32 317.922 364.02 317.672C364.31 317.342 364.56 316.792 364.89 316.732C365.21 316.672 365.61 317.142 366.21 317.532Z" fill="#FFD400"/>
</g>
<defs>
<filter id="filter0_d_794_8658" x="0.0112305" y="0" width="685.184" height="547.762" filterUnits="userSpaceOnUse" color-interpolation-filters="sRGB">
<feFlood flood-opacity="0" result="BackgroundImageFix"/>
<feColorMatrix in="SourceAlpha" type="matrix" values="0 0 0 0 0 0 0 0 0 0 0 0 0 0 0 0 0 0 127 0" result="hardAlpha"/>
<feOffset/>
<feGaussianBlur stdDeviation="5"/>
<feComposite in2="hardAlpha" operator="out"/>
<feColorMatrix type="matrix" values="0 0 0 0 1 0 0 0 0 0.831373 0 0 0 0 0 0 0 0 1 0"/>
<feBlend mode="normal" in2="BackgroundImageFix" result="effect1_dropShadow_794_8658"/>
<feBlend mode="normal" in="SourceGraphic" in2="effect1_dropShadow_794_8658" result="shape"/>
</filter>
</defs>
</svg>
