<svg width="805" height="805" viewBox="0 0 805 805" fill="none" xmlns="http://www.w3.org/2000/svg">
<g filter="url(#filter0_d_794_8577)">
<path d="M728.31 410.029C728.95 411.319 729.44 412.169 729.81 413.079C740.88 440.359 752.14 467.569 762.93 494.959C771.65 517.099 779.07 539.699 784.77 562.829C788.64 578.519 791.48 594.379 793.2 610.439C794.75 624.869 794.64 639.339 794.45 653.679C793.02 655.029 791.45 654.579 790.01 654.579C774.86 654.619 759.71 654.619 744.56 654.619C722.25 654.619 699.94 654.619 677.63 654.599C611.7 654.539 545.77 654.459 479.84 654.389C477.52 654.389 475.22 654.519 472.92 653.789C471.7 653.399 470.28 653.619 468.95 653.619C432.82 653.609 396.69 653.609 360.56 653.609C358.9 653.609 357.24 653.609 355.33 653.609C355.11 652.549 354.76 651.629 354.76 650.709C354.71 641.889 354.72 633.059 354.73 624.239C354.73 623.589 354.87 622.949 354.93 622.379C356.34 621.219 357.9 621.639 359.33 621.629C373.48 621.599 387.63 621.619 401.79 621.619C424.1 621.619 446.41 621.629 468.72 621.619C470.18 621.619 471.65 621.499 473.27 621.429C473.79 619.409 473.63 617.629 473.32 615.839C469.84 595.689 466.34 575.539 462.88 555.389C459.19 533.919 455.52 512.449 451.87 490.979C450.11 480.649 448.37 470.319 446.7 459.979C446.37 457.959 445.86 456.109 444.52 454.509C434.16 442.129 423.81 429.739 413.25 417.109C390.12 420.449 367.03 424.219 343.91 427.759C320.79 431.299 297.67 434.869 274.88 438.439C273.83 440.379 273.05 441.829 272.12 443.549C262.33 443.639 252.53 443.669 242.72 443.509C242.29 443.499 241.86 443.159 241.14 442.859C244.21 431.819 245.84 420.419 251.53 409.789C270.07 406.479 289 403.939 307.84 400.939C326.71 397.939 345.61 395.109 364.5 392.219C383.37 389.329 402.24 386.469 421.51 383.529C421.14 382.669 421.05 381.989 420.67 381.609C400.39 361.679 386.46 337.589 375.01 311.869C367.97 296.059 362.27 279.739 356.82 263.319C356.4 262.069 355.92 260.839 355.47 259.619C351.08 257.699 346.89 255.689 343.18 252.819C332.62 244.669 326.03 233.959 322.8 221.109C319.61 208.439 321.17 196.369 327.52 184.929C330.03 180.409 332.79 176.069 336.16 172.119C337.02 171.119 337.83 170.069 338.85 168.809C338.19 168.159 337.7 167.539 337.08 167.079C327.41 160.009 320.66 150.669 315.96 139.769C312.06 130.719 309.57 121.239 307.79 111.569C305.32 98.1191 304.05 84.5491 303.66 70.8891C303.53 66.3991 303.28 61.9091 303.19 57.4091C303.15 55.4191 303.23 53.4091 303.52 51.4491C305.34 39.2991 320.07 33.8191 329.76 41.9191C331.16 43.0891 332.37 44.4791 333.65 45.7891C337.04 49.2591 340.71 52.3591 345.02 54.6591C352.96 58.8891 361.14 59.3991 369.61 56.4891C373.59 55.1291 377.18 53.0691 380.65 50.7691C389.11 45.1491 397.89 40.0591 406.99 35.5491C426.9 25.6691 447.75 18.5391 469.6 14.4391C485.86 11.3891 502.31 10.2991 518.8 11.3791C542.52 12.9391 565.01 19.1991 585.54 31.3391C596.72 37.9491 606.91 46.0691 616.74 54.5791C621.79 58.9491 626.47 63.6591 630.82 68.7291C637.61 76.6491 642.89 85.4691 646.28 95.3391C650.97 108.989 650.84 122.779 647.02 136.599C645.46 142.219 643.41 147.659 640.95 152.949C640.19 154.589 639.46 156.249 638.65 158.059C639.89 159.299 641 160.509 642.22 161.609C651.13 169.699 655.67 179.979 657.55 191.679C658.61 198.299 658.81 204.939 658.55 211.599C657.85 229.439 646.38 250.929 627.05 259.109C626.44 259.369 625.87 259.719 624.87 260.239C624.43 261.479 623.84 262.999 623.33 264.559C618.01 280.849 612.34 297.019 605.46 312.729C598.36 328.929 590.06 344.459 579.89 358.959C574.72 366.339 569.01 373.269 562.62 379.629C561.46 380.779 560.33 381.959 558.85 383.469C560.56 383.999 561.74 384.539 562.98 384.719C572.51 386.169 582.05 387.499 591.58 388.959C601.27 390.439 610.94 392.049 620.62 393.549C628.17 394.719 635.74 395.759 643.3 396.919C650.85 398.079 658.39 399.319 665.94 400.509C673 401.619 680.06 402.719 687.12 403.789C700.74 405.869 714.37 407.929 728.31 410.029ZM506.99 621.759C508.98 621.819 510.79 621.919 512.59 621.919C585.34 621.929 658.08 621.929 730.83 621.929C739.15 621.929 747.48 621.939 755.8 621.899C757.24 621.889 758.8 622.269 760.18 621.099C760.18 618.849 760.39 616.519 760.15 614.249C758.62 599.689 756.21 585.269 752.76 571.029C748.44 553.239 742.9 535.839 736.72 518.619C727.34 492.479 716.18 467.049 706.02 441.219C705.14 438.979 703.75 438.169 701.61 437.869C696.18 437.109 690.76 436.299 685.34 435.469C677.46 434.249 669.59 432.999 661.71 431.759C654.16 430.569 646.61 429.369 639.06 428.199C631.67 427.059 624.28 425.939 616.89 424.819C609.5 423.689 602.11 422.579 594.72 421.429C585.37 419.979 576.03 418.499 566.62 417.019C565.96 417.669 565.32 418.189 564.79 418.819C554.96 430.559 545.16 442.329 535.3 454.049C533.72 455.929 533.05 458.019 532.66 460.379C530.85 471.369 528.96 482.349 527.08 493.329C524.64 507.589 522.18 521.849 519.74 536.109C517.53 549.059 515.33 562.009 513.13 574.959C510.94 587.909 508.81 600.869 506.55 613.809C506.1 616.319 506.14 618.729 506.99 621.759ZM338.3 87.2691C337.53 89.3691 337.94 91.1891 338.18 92.9791C338.71 96.9391 339.21 100.899 339.92 104.829C341.34 112.699 343.24 120.439 346.61 127.749C350.05 135.219 355.1 141.209 362.23 145.409C364.02 146.469 365.69 147.079 367.86 146.519C370.58 145.829 373.43 145.639 376.19 145.089C395.44 141.219 412.86 133.329 428.07 120.869C441.4 109.959 451.1 96.5191 455.74 79.7191C455.96 78.9191 456.27 78.1391 456.57 77.3691C461.22 65.6091 475.77 63.8691 483.72 72.0591C485.75 74.1491 486.9 76.6691 487.83 79.3791C493.05 94.5491 501.98 107.209 514.25 117.449C534.61 134.449 558.43 142.859 584.58 145.019C591.36 145.579 598.22 145.139 605.04 145.099C606.35 145.089 607.65 144.859 609.09 144.709C612.63 138.519 615.06 132.039 616.64 125.199C619.19 114.139 616.98 104.039 610.51 94.8891C608.02 91.3791 605.17 88.0691 602.15 84.9991C592.31 74.9691 580.85 66.9391 569.29 59.0691C568.2 58.3291 566.98 57.7491 565.8 57.1391C546.93 47.4091 526.75 43.3091 505.67 43.2591C502.02 43.2491 498.37 43.8291 494.72 44.0191C486.39 44.4391 478.19 45.7891 470.08 47.5991C446.67 52.8191 424.8 61.8591 404.44 74.5391C401.19 76.5591 397.96 78.6091 394.67 80.5691C385.26 86.1791 375.17 89.8091 364.22 90.8191C357.02 91.4891 349.96 90.5591 343.02 88.5791C341.46 88.1191 339.89 87.7091 338.3 87.2691ZM400.04 284.909C399.84 285.799 399.74 285.979 399.78 286.119C400.01 286.909 400.24 287.709 400.54 288.479C405.71 301.289 411.45 313.839 418.43 325.779C425.51 337.909 433.72 349.159 444.1 358.729C447.41 361.779 450.9 364.559 454.82 366.839C461.62 370.789 469.15 372.299 476.78 372.719C487.9 373.329 499.06 373.679 510.14 371.859C518.15 370.549 525.47 367.729 531.78 362.409C540.26 355.279 547.36 346.959 553.63 337.899C564.77 321.799 572.83 304.129 580.08 286.039C580.3 285.479 580.23 284.809 580.33 283.919C578.45 283.869 576.8 283.789 575.16 283.789C558.85 283.769 542.55 283.789 526.24 283.739C523.75 283.729 521.26 283.499 518.79 283.249C513.76 282.749 509.68 280.379 506.21 276.769C503.76 274.219 501.88 271.319 500.49 268.069C497.61 261.349 494.72 254.639 491.81 247.929C491.42 247.039 490.9 246.219 490.4 245.289C488.65 246.369 488.47 248.139 487.83 249.589C484.89 256.289 482.16 263.079 479.14 269.739C474.73 279.459 467.1 284.489 456.39 284.759C455.39 284.789 454.39 284.769 453.39 284.769C437.25 284.769 421.11 284.759 404.97 284.759C403.32 284.769 401.68 284.859 400.04 284.909ZM472.17 119.339C471.27 120.499 470.65 121.269 470.06 122.069C466.24 127.329 462.11 132.339 457.44 136.879C443.91 150.039 428.24 159.949 410.82 167.109C402.2 170.649 393.3 173.359 384.18 175.299C381.75 175.819 379.4 176.489 377.26 177.939C368.87 183.629 362 190.739 356.44 199.209C354.13 202.729 353.31 206.479 353.79 210.609C354.66 218.059 358.31 223.739 364.71 227.579C366.37 228.579 368.17 229.649 370.53 228.659C370.59 227.259 370.71 225.779 370.7 224.299C370.68 217.559 373.79 212.549 379.2 208.799C381.97 206.879 385.04 205.659 388.35 205.039C389.82 204.759 391.38 204.689 392.73 204.119C394.5 203.369 396.28 203.319 398.1 203.319C422.91 203.329 447.72 203.329 472.53 203.369C474.35 203.369 476.17 203.659 477.99 203.809C482.03 204.149 485.61 205.959 489.31 207.509C490.86 206.689 492.3 205.849 493.79 205.149C497.29 203.499 501.07 202.149 504.85 202.779C507.85 203.289 510.79 203.309 513.75 203.319C537.06 203.369 560.37 203.319 583.68 203.379C586.49 203.389 589.36 203.589 592.1 204.169C601.73 206.189 609.38 213.419 609.38 224.409C609.38 225.859 609.54 227.309 609.63 228.779C612.52 229.269 614.47 227.879 616.33 226.549C621.96 222.529 624.93 216.869 625.51 210.099C625.84 206.309 625.67 202.439 625.33 198.639C624.59 190.429 621 183.759 614.21 178.849C612.36 177.509 610.62 176.749 608.31 176.819C602.49 177.019 596.66 176.969 590.83 177.089C582.3 177.269 573.87 176.219 565.52 174.779C550.72 172.229 536.46 167.779 522.95 161.099C503.56 151.499 486.74 138.759 473.84 121.179C473.48 120.639 472.98 120.209 472.17 119.339ZM481.34 222.279C480.42 221.699 480.05 221.339 479.6 221.189C476.41 220.159 473.14 219.799 469.78 219.799C445 219.839 420.22 219.819 395.44 219.829C394.28 219.829 393.11 219.809 391.95 219.909C387.82 220.259 385.96 222.179 385.92 226.229C385.87 231.379 386 236.539 385.87 241.689C385.77 245.729 386.2 249.599 387.69 253.399C388.96 256.639 389.87 260.029 391 263.329C391.53 264.879 392.2 266.379 392.88 268.069C394.75 268.139 396.4 268.269 398.04 268.269C416.83 268.279 435.62 268.259 454.42 268.249C455.42 268.249 456.41 268.169 457.41 268.169C459.62 268.179 461.27 267.139 462.35 265.319C463.53 263.319 464.63 261.259 465.56 259.139C469.48 250.159 473.33 241.149 477.19 232.149C478.55 228.939 479.88 225.729 481.34 222.279ZM587.01 267.969C589.17 261.349 591.18 255.209 593.16 249.059C593.36 248.439 593.44 247.749 593.45 247.099C593.47 239.449 593.51 231.799 593.43 224.149C593.42 223.259 592.95 222.139 592.3 221.549C590.67 220.079 588.69 219.269 586.4 219.399C583.42 219.579 580.44 219.809 577.46 219.809C554.18 219.839 530.9 219.819 507.62 219.829C505.96 219.829 504.29 219.879 502.64 220.029C501.14 220.159 499.73 220.579 498.65 222.159C498.93 223.129 499.14 224.259 499.59 225.299C504.56 236.909 509.54 248.509 514.57 260.089C515.29 261.759 516.24 263.339 517.21 264.879C518.44 266.839 520.33 267.809 522.63 267.929C523.63 267.979 524.62 267.969 525.62 267.969C544.58 267.969 563.53 267.969 582.49 267.969C583.81 267.969 585.12 267.969 587.01 267.969ZM438.34 395.799C438.17 396.069 438 396.329 437.83 396.599C438.75 397.759 439.65 398.939 440.6 400.069C450.85 412.319 461.12 424.559 471.37 436.809C474.64 440.719 476.7 445.219 477.56 450.229C481.02 470.549 484.39 490.879 487.94 511.179C488.47 514.229 488.35 517.489 490.17 520.789C490.43 519.769 490.61 519.199 490.72 518.619C492.36 509.289 494.02 499.969 495.63 490.639C497.86 477.709 500.14 464.779 502.24 451.819C503.23 445.719 505.72 440.479 509.8 435.869C512.89 432.379 515.79 428.739 518.78 425.169C525.83 416.749 532.89 408.339 539.92 399.909C540.59 399.109 541.65 398.419 541.31 396.669C540.05 397.169 539.01 397.539 538.01 398.009C530.44 401.569 522.56 404.179 514.22 404.989C506.78 405.709 499.31 406.299 491.84 406.529C486.54 406.689 481.21 406.199 475.9 405.909C463.65 405.239 451.94 402.409 440.93 396.909C440.08 396.489 439.2 396.159 438.34 395.799Z" fill="#FFD400"/>
<path d="M275.49 490.788C266.66 490.788 258.01 490.788 249.35 490.788C185.93 490.778 122.5 490.778 59.0799 490.768C57.4199 490.768 55.7399 490.688 54.0899 490.808C47.6099 491.288 42.9799 495.808 42.3199 502.288C42.1899 503.608 42.2399 504.948 42.2399 506.278C42.2499 570.038 42.2599 633.788 42.2599 697.548C42.2599 714.028 42.2399 730.508 42.2399 746.988C42.2399 748.488 42.1799 749.998 42.3599 751.478C43.1499 757.708 47.7899 762.048 54.0499 762.438C56.0399 762.558 58.0399 762.468 60.0399 762.468C125.79 762.468 191.55 762.468 257.3 762.468C268.79 762.468 280.27 762.478 291.76 762.488C293.93 762.488 296.05 762.458 298.15 761.668C302.81 759.908 305.44 756.598 305.96 751.678C306.15 749.868 306.08 748.018 306.08 746.188C306.09 705.568 306.07 664.958 306.1 624.338C306.1 617.138 305.36 618.968 310.35 613.938C318.21 606.018 326.1 598.148 334.02 590.288C335.16 589.158 336.02 587.618 337.78 587.288C339.1 588.138 338.62 589.418 338.62 590.488C338.67 600.478 338.67 610.468 338.67 620.448C338.66 663.058 338.65 705.678 338.65 748.288C338.65 752.638 338.28 756.928 337.31 761.158C333.59 777.368 318.32 791.828 300.55 794.238C298.58 794.508 296.56 794.458 294.57 794.458C250.96 794.478 207.34 794.488 163.73 794.488C127.11 794.488 90.4899 794.428 53.8599 794.508C46.3299 794.528 39.1799 792.968 32.8599 789.118C18.7299 780.508 10.2399 768.148 10.0899 751.138C9.90992 730.328 10.0499 709.518 10.0499 688.718C10.0499 643.768 10.0499 598.828 10.0499 553.878C10.0499 536.728 10.1899 519.588 10.0299 502.438C9.81992 479.868 26.8899 465.098 40.7699 460.708C45.2499 459.288 49.8199 458.738 54.5299 458.748C83.8299 458.798 113.13 458.758 142.42 458.758C192.86 458.758 243.3 458.768 293.74 458.778C297.55 458.778 301.4 458.548 305.27 460.258C304.99 460.828 304.85 461.508 304.44 461.918C294.92 471.458 285.36 480.958 275.49 490.788Z" fill="#FFD400"/>
<path d="M336.48 452.59C337.18 453.12 337.87 453.56 338.46 454.12C344.03 459.33 349.65 464.5 355.13 469.8C360.51 475.01 365.74 480.37 371.04 485.67C377.63 492.26 384.23 498.85 390.81 505.45C391.62 506.26 392.36 507.15 393.21 508.1C392.77 508.74 392.46 509.32 392.04 509.79C391.14 510.77 390.18 511.7 389.24 512.64C331.68 570.2 274.1 627.74 216.6 685.36C212.22 689.75 207.21 692.7 201.32 694.28C180.47 699.86 159.61 705.39 138.77 710.98C137.32 711.37 135.95 711.76 134.1 711.33C134.81 708.05 135.41 705 136.13 701.98C140.75 682.58 145.41 663.19 150.04 643.8C151.15 639.14 153.76 635.32 156.74 631.71C157.48 630.82 158.37 630.05 159.2 629.23C216.76 571.67 274.32 514.11 331.89 456.56C333.27 455.17 334.47 453.54 336.48 452.59ZM336.01 497.5C334.64 498.83 333.2 500.2 331.8 501.6C283.09 550.3 234.38 599.01 185.68 647.72C184.97 648.43 184.3 649.16 183.56 649.83C182.14 651.11 181.38 652.69 181.02 654.56C180.48 657.33 179.76 660.07 179.19 662.84C178.97 663.92 178.97 665.05 178.83 666.59C182.35 666.02 185.28 664.87 188.33 664.32C191.59 663.73 194.01 661.97 196.32 659.66C245.46 610.44 294.65 561.28 343.82 512.1C344.99 510.93 346.11 509.72 347.22 508.56C344.63 504.95 339.31 499.7 336.01 497.5Z" fill="#FFD400"/>
</g>
<defs>
<filter id="filter0_d_794_8577" x="-0.00195312" y="0.972656" width="804.559" height="803.535" filterUnits="userSpaceOnUse" color-interpolation-filters="sRGB">
<feFlood flood-opacity="0" result="BackgroundImageFix"/>
<feColorMatrix in="SourceAlpha" type="matrix" values="0 0 0 0 0 0 0 0 0 0 0 0 0 0 0 0 0 0 127 0" result="hardAlpha"/>
<feOffset/>
<feGaussianBlur stdDeviation="5"/>
<feComposite in2="hardAlpha" operator="out"/>
<feColorMatrix type="matrix" values="0 0 0 0 1 0 0 0 0 0.831373 0 0 0 0 0 0 0 0 1 0"/>
<feBlend mode="normal" in2="BackgroundImageFix" result="effect1_dropShadow_794_8577"/>
<feBlend mode="normal" in="SourceGraphic" in2="effect1_dropShadow_794_8577" result="shape"/>
</filter>
</defs>
</svg>
