<svg width="672" height="687" viewBox="0 0 672 687" fill="none" xmlns="http://www.w3.org/2000/svg">
<g filter="url(#filter0_d_794_8609)">
<path d="M120.578 285.359C119.488 285.649 118.908 285.869 118.308 285.959C106.288 287.659 96.0583 293.079 87.1083 301.089C76.5283 310.559 69.1583 322.229 63.9883 335.339C55.4683 356.959 53.6783 379.289 57.4083 402.109C59.7783 416.559 64.6183 430.129 72.4483 442.559C78.3783 451.969 85.6883 460.089 95.0183 466.239C104.558 472.539 115.008 475.999 126.538 475.799C127.648 475.779 128.758 475.609 129.768 475.519C127.378 472.979 125.168 470.509 122.828 468.169C116.388 461.739 110.568 454.779 105.278 447.399C99.2483 438.989 94.0283 430.099 89.8983 420.589C82.4983 403.569 78.9783 385.869 80.6683 367.279C81.8283 354.529 85.4483 342.469 91.0183 330.979C98.9483 314.599 110.088 300.609 122.838 287.749C125.048 285.519 127.388 284.169 130.258 283.219C140.218 279.939 150.198 276.729 160.048 273.149C173.498 268.259 186.928 263.309 200.178 257.899C213.268 252.549 226.198 246.809 239.038 240.869C253.318 234.269 267.378 227.199 281.058 219.439C293.508 212.379 306.008 205.379 318.138 197.799C330.908 189.819 343.438 181.429 355.748 172.759C367.238 164.659 378.538 156.259 389.498 147.449C400.848 138.329 411.798 128.709 422.698 119.059C433.358 109.619 443.408 99.5388 453.098 89.0988C455.358 86.6588 458.098 84.4488 459.648 81.6088C461.188 78.7888 461.588 75.3189 462.358 72.1089C464.988 61.0689 468.338 50.2789 473.348 40.0588C476.738 33.1488 480.788 26.6789 486.228 21.1489C494.128 13.0989 503.558 8.99885 514.998 10.2089C522.028 10.9489 528.318 13.6789 534.268 17.3389C542.708 22.5389 549.848 29.2488 556.418 36.6089C569.028 50.7289 579.058 66.6088 588.118 83.1488C594.848 95.4189 600.828 108.059 606.298 120.939C612.978 136.649 618.918 152.639 624.248 168.859C634.288 199.429 642.168 230.549 648.248 262.129C651.648 279.789 654.398 297.559 656.578 315.409C660.358 346.289 661.938 377.289 660.978 408.379C660.258 431.479 657.838 454.389 652.078 476.849C649.178 488.169 645.388 499.179 639.648 509.419C636.168 515.619 632.048 521.339 626.628 526.049C616.658 534.699 605.428 536.739 592.828 532.989C586.368 531.069 580.848 527.599 575.628 523.609C569.118 518.629 562.038 514.589 554.858 510.729C544.138 504.969 533.018 500.089 521.628 495.809C511.658 492.069 501.538 488.749 491.298 485.789C477.698 481.849 463.978 478.389 450.078 475.749C435.768 473.039 421.418 470.509 407.008 468.469C392.758 466.449 378.428 464.829 364.088 463.589C338.618 461.379 313.088 460.159 287.508 460.099C286.758 460.099 285.988 460.029 285.268 460.169C284.568 460.309 283.758 460.519 283.278 460.989C278.868 465.249 275.108 469.999 272.878 475.789C269.738 483.949 270.928 491.649 275.708 498.849C278.218 502.629 281.318 505.889 285.018 508.499C286.498 509.539 286.958 510.709 286.888 512.469C286.618 519.709 286.498 526.949 286.268 534.189C286.218 535.729 286.518 537.119 287.178 538.519C291.338 547.279 297.008 554.979 304.088 561.509C307.168 564.349 308.778 567.339 309.248 571.479C310.218 579.989 311.678 588.449 312.828 596.949C313.088 598.889 313.858 599.899 315.778 600.659C324.288 604.029 328.918 610.569 330.208 619.489C330.988 624.899 330.578 630.289 329.248 635.599C329.168 635.909 328.978 636.199 328.768 636.649C328.138 636.649 327.498 636.629 326.858 636.649C325.068 636.709 323.938 637.459 323.588 639.149C322.938 642.249 323.478 645.289 324.568 648.209C324.798 648.819 325.548 649.319 326.168 649.699C332.658 653.749 334.128 660.119 331.558 666.869C330.708 669.109 329.458 671.199 328.348 673.339C327.908 674.189 327.218 674.639 326.188 674.789C309.948 677.179 293.798 676.959 277.868 672.729C259.738 667.909 245.038 658.009 234.438 642.369C229.398 634.929 225.738 626.849 223.638 618.089C223.348 616.879 223.178 615.629 223.098 614.389C221.618 590.089 217.468 566.289 209.808 543.149C204.878 528.249 198.628 513.929 190.258 500.599C188.928 498.489 187.578 496.389 186.208 494.309C184.108 491.109 181.228 488.759 177.998 486.779C172.148 483.209 165.698 481.159 159.048 480.009C150.698 478.569 142.238 477.719 133.818 476.599C132.578 476.429 131.568 476.859 130.528 477.459C123.478 481.519 116.008 484.549 108.008 486.039C92.6383 488.919 77.8683 487.099 63.7583 480.189C43.9583 470.499 30.4483 454.819 21.1983 435.209C11.7783 415.249 8.62828 394.139 10.5283 372.199C12.0883 354.239 17.2783 337.449 26.5883 321.989C34.4983 308.859 44.7283 297.939 58.0283 290.169C74.4783 280.559 92.0683 277.649 110.718 281.999C113.468 282.639 116.128 283.629 118.828 284.489C119.268 284.629 119.668 284.909 120.578 285.359ZM464.508 93.2688C464.298 93.2288 464.088 93.1889 463.878 93.1589C462.888 94.7789 462.008 96.4789 460.878 97.9988C455.908 104.669 451.068 111.449 445.788 117.879C437.658 127.779 429.378 137.559 419.058 145.389C408.388 153.489 397.988 161.949 387.268 169.989C370.098 182.879 352.528 195.219 334.578 207.009C322.738 214.779 310.648 222.089 298.128 228.709C285.988 235.129 273.818 241.479 262.278 248.959C255.178 253.559 248.678 258.809 243.178 265.269C233.968 276.089 227.348 288.489 221.538 301.329C216.698 312.029 213.718 323.279 212.648 334.979C211.668 345.649 212.178 356.259 214.508 366.759C217.178 378.829 221.848 390.069 228.388 400.539C234.208 409.859 241.298 418.129 249.878 424.999C260.908 433.829 272.948 441.089 285.788 446.939C291.018 449.319 296.458 451.269 302.358 451.129C321.758 450.659 341.148 450.839 360.528 451.819C370.588 452.329 380.658 452.789 390.688 453.679C405.528 454.989 420.358 456.419 435.068 458.839C445.738 460.589 456.438 462.219 467.028 464.389C476.878 466.409 486.638 468.929 496.368 471.499C506.418 474.149 516.428 476.999 526.378 479.999C531.958 481.679 537.328 483.969 542.318 487.049C543.678 487.889 544.998 488.779 546.348 489.649C545.708 487.439 544.958 485.419 543.918 483.559C536.418 470.199 529.628 456.479 523.348 442.509C514.438 422.689 506.328 402.549 499.048 382.069C492.048 362.379 485.828 342.439 480.478 322.239C475.938 305.099 471.938 287.829 468.878 270.359C466.868 258.889 464.968 247.379 463.558 235.819C462.018 223.269 460.858 210.659 459.978 198.039C458.848 181.839 458.738 165.599 459.238 149.359C459.708 134.279 460.988 119.279 463.098 104.349C463.608 100.659 464.038 96.9588 464.508 93.2688ZM579.118 381.059C578.688 362.539 576.398 341.789 572.948 321.159C570.108 304.159 566.548 287.319 562.278 270.619C556.058 246.319 548.588 222.439 538.878 199.299C533.198 185.779 526.898 172.569 518.658 160.379C514.778 154.639 510.528 149.199 504.908 144.999C501.758 142.649 498.318 141.139 494.238 141.589C493.588 141.659 492.898 141.599 492.258 141.459C487.718 140.459 484.308 142.249 481.588 145.739C478.108 150.189 476.528 155.469 475.328 160.839C473.028 171.119 472.348 181.589 472.308 192.099C472.218 215.059 474.758 237.799 478.488 260.409C482.068 282.099 486.878 303.529 492.808 324.709C497.478 341.389 502.788 357.849 509.118 373.979C514.688 388.169 520.878 402.069 528.768 415.159C533.198 422.519 538.008 429.629 544.578 435.299C548.298 438.509 552.328 441.099 557.638 440.389C558.438 440.279 559.298 440.479 560.108 440.629C562.918 441.159 565.368 440.409 567.548 438.619C570.128 436.499 571.978 433.799 573.058 430.719C574.488 426.649 575.868 422.519 576.708 418.299C579.008 406.799 579.328 395.139 579.118 381.059Z" fill="#FFD400"/>
</g>
<defs>
<filter id="filter0_d_794_8609" x="0" y="0" width="671.253" height="686.316" filterUnits="userSpaceOnUse" color-interpolation-filters="sRGB">
<feFlood flood-opacity="0" result="BackgroundImageFix"/>
<feColorMatrix in="SourceAlpha" type="matrix" values="0 0 0 0 0 0 0 0 0 0 0 0 0 0 0 0 0 0 127 0" result="hardAlpha"/>
<feOffset/>
<feGaussianBlur stdDeviation="5"/>
<feComposite in2="hardAlpha" operator="out"/>
<feColorMatrix type="matrix" values="0 0 0 0 1 0 0 0 0 0.831373 0 0 0 0 0 0 0 0 1 0"/>
<feBlend mode="normal" in2="BackgroundImageFix" result="effect1_dropShadow_794_8609"/>
<feBlend mode="normal" in="SourceGraphic" in2="effect1_dropShadow_794_8609" result="shape"/>
</filter>
</defs>
</svg>
